#N canvas 600 403 596 559 12;
#X msg 257 325 addsemi;
#X msg 329 325 set;
#X msg 142 325 adddollar \$1;
#X obj 139 208 until;
#X obj 142 262 f;
#X obj 195 274 + 1;
#X obj 195 211 0;
#X obj 174 184 t f b;
#X obj 212 145 t f b b;
#X obj 100 5 inlet;
#X obj 142 507 outlet;
#X obj 215 93 list length;
#X obj 100 64 t l l;
#X obj 142 286 + 1;
#X obj 100 30 list;
#X connect 0 0 10 0;
#X connect 1 0 10 0;
#X connect 2 0 10 0;
#X connect 3 0 4 0;
#X connect 4 0 5 0;
#X connect 4 0 13 0;
#X connect 5 0 4 1;
#X connect 6 0 4 1;
#X connect 7 0 3 0;
#X connect 7 1 6 0;
#X connect 8 0 7 0;
#X connect 8 1 0 0;
#X connect 8 2 1 0;
#X connect 9 0 14 0;
#X connect 11 0 8 0;
#X connect 12 0 10 0;
#X connect 12 1 11 0;
#X connect 13 0 2 0;
#X connect 14 0 12 0;
