#N canvas 1263 151 478 487 12;
#X msg 142 325 adddollar \$1;
#X obj 139 208 until;
#X obj 142 262 f;
#X obj 195 274 + 1;
#X obj 195 211 0;
#X obj 174 184 t f b;
#X obj 100 8 inlet;
#X obj 139 405 outlet;
#X obj 212 114 list length;
#X obj 100 72 t l l;
#X obj 142 286 + 1;
#X obj 100 40 list;
#X obj 257 297 symbol \$1;
#X obj 213 136 t f b b;
#X msg 257 326 add2 \$1;
#X msg 362 315 set;
#X text 55 446 \$1 = Symbol to prepend to start of message.;
#X connect 0 0 7 0;
#X connect 1 0 2 0;
#X connect 2 0 3 0;
#X connect 2 0 10 0;
#X connect 3 0 2 1;
#X connect 4 0 2 1;
#X connect 5 0 1 0;
#X connect 5 1 4 0;
#X connect 6 0 11 0;
#X connect 8 0 13 0;
#X connect 9 0 7 0;
#X connect 9 1 8 0;
#X connect 10 0 0 0;
#X connect 11 0 9 0;
#X connect 12 0 14 0;
#X connect 13 0 5 0;
#X connect 13 1 12 0;
#X connect 13 2 15 0;
#X connect 14 0 7 0;
#X connect 15 0 7 0;
