#N canvas 646 205 374 211 12;
#X obj 22 107 message;
#X msg 40 80 reset;
#X obj 22 132 outlet;
#X obj 22 14 inlet beat;
#X obj 155 19 inlet whatever;
#X msg 22 39 bang;
#X obj 155 44 route clear;
#X connect 0 0 1 0;
#X connect 0 0 2 0;
#X connect 1 0 0 1;
#X connect 3 0 5 0;
#X connect 4 0 6 0;
#X connect 5 0 0 0;
#X connect 6 0 1 0;
#X connect 6 1 0 1;
