#N canvas 852 303 875 609 10;
#X floatatom 354 69 5 0 0 2 tresh - -;
#X floatatom 402 68 5 1 100 2 ratio - -;
#X obj 354 15 inlet;
#X obj 402 14 inlet;
#X text 44 90 linear;
#X text 298 108 calculate the compression factor;
#X text 332 169 apply the ratio;
#X text 321 130 compress if we are over 0;
#X text 326 210 get the difference in level to the original;
#X text 346 230 convert dB to factor (in pd 0 dB == 100);
#X obj 250 106 -~ 80;
#X obj 307 13 inlet~;
#X obj 294 211 -~;
#X obj 294 170 /~ 4;
#X obj 294 191 +~ 80;
#X obj 176 277 dbtorms~;
#X obj 157 338 outlet~;
#X obj 634 195 max~;
#X obj 626 135 min~;
#X obj 490 39 inlet~;
#X obj 695 24 inlet;
#X obj 519 335 f~;
#X floatatom 755 29 5 0 0 0 - - -;
#X obj 624 244 scope~;
#X obj 548 37 osc~ 440;
#X obj 716 52 sig~;
#X obj 649 92 /~ 10;
#X obj 703 103 *~ -1;
#X obj 703 125 /~ 10;
#X obj 732 175 f~;
#X obj 690 210 f~;
#X obj 339 416 scope~;
#X obj 249 132 max~ 0;
#X obj 207 254 +~ 100;
#X obj 351 265 f~;
#X obj 265 332 *~;
#X floatatom 456 73 5 0 0 0 - - -;
#X obj 327 345 sig~;
#X obj 214 190 f~;
#X obj 212 39 max~ 0;
#X obj 149 33 min~ 0;
#X obj 7 67 f~;
#X obj -16 127 f~;
#X obj 108 277 -~;
#X obj 108 236 /~ 4;
#X obj 108 258 +~ 80;
#X obj -10 343 dbtorms~;
#X obj -29 404 outlet~;
#X obj 88 423 scope~;
#X obj 21 320 +~ 100;
#X obj 188 386 f~;
#X obj 101 386 *~;
#X obj 6 235 f~;
#X obj 144 114 f~;
#X obj 125 198 f~;
#X obj 190 3 osc~ 1;
#X obj 63 198 max~ 0;
#X obj 65 158 -~ 80;
#X obj 149 60 *~ -1;
#X obj 230 61 *~ 1;
#X obj 108 299 *~ -1;
#X connect 0 0 10 1;
#X connect 0 0 14 1;
#X connect 0 0 57 1;
#X connect 0 0 45 1;
#X connect 1 0 13 1;
#X connect 1 0 44 1;
#X connect 2 0 0 0;
#X connect 3 0 1 0;
#X connect 10 0 32 0;
#X connect 11 0 43 1;
#X connect 11 0 12 1;
#X connect 12 0 33 0;
#X connect 12 0 35 0;
#X connect 12 0 34 0;
#X connect 13 0 14 0;
#X connect 14 0 12 0;
#X connect 15 0 16 0;
#X connect 17 0 21 0;
#X connect 17 0 23 0;
#X connect 18 0 17 0;
#X connect 19 0 18 0;
#X connect 20 0 26 0;
#X connect 20 0 27 0;
#X connect 22 0 25 0;
#X connect 24 0 18 0;
#X connect 25 0 27 0;
#X connect 25 0 26 0;
#X connect 26 0 18 1;
#X connect 26 0 30 0;
#X connect 27 0 28 0;
#X connect 28 0 17 1;
#X connect 28 0 29 0;
#X connect 32 0 13 0;
#X connect 32 0 38 0;
#X connect 33 0 15 0;
#X connect 35 0 31 0;
#X connect 36 0 37 0;
#X connect 37 0 35 1;
#X connect 37 0 51 1;
#X connect 39 0 53 0;
#X connect 39 0 59 0;
#X connect 40 0 41 0;
#X connect 40 0 58 0;
#X connect 43 0 60 0;
#X connect 44 0 45 0;
#X connect 45 0 43 0;
#X connect 46 0 47 0;
#X connect 49 0 46 0;
#X connect 51 0 48 0;
#X connect 51 0 31 0;
#X connect 55 0 39 0;
#X connect 55 0 40 0;
#X connect 56 0 44 0;
#X connect 56 0 52 0;
#X connect 57 0 54 0;
#X connect 57 0 56 0;
#X connect 58 0 57 0;
#X connect 59 0 10 0;
#X connect 60 0 50 0;
#X connect 60 0 51 0;
#X connect 60 0 49 0;
