#N canvas 183 305 290 223 10;
#X obj 84 8 inlet~;
#X obj 148 8 inlet~;
#X obj 84 131 *~;
#X obj 84 180 outlet~;
#X obj 9 8 inlet fade;
#X obj 99 71 -;
#X obj 148 131 *~;
#X obj 99 51 swap 1;
#X obj 99 91 sig~;
#X obj 163 51 sig~;
#X obj 99 111 lop~ 10;
#X obj 163 73 lop~ 10;
#X connect 0 0 2 0;
#X connect 1 0 6 0;
#X connect 2 0 3 0;
#X connect 4 0 7 0;
#X connect 4 0 9 0;
#X connect 5 0 8 0;
#X connect 6 0 3 0;
#X connect 7 0 5 0;
#X connect 7 1 5 1;
#X connect 8 0 10 0;
#X connect 9 0 11 0;
#X connect 10 0 2 1;
#X connect 11 0 6 1;
