#N canvas 0 0 450 300 10;
#X obj 80 175 *~;
#X obj 157 132 line~;
#X obj 59 58 inlet~;
#X obj 231 44 loadbang;
#X obj 231 69 \$2;
#X msg 231 94 \$1 10;
#X obj 148 12 r \$1-set-delay-gain;
#X obj 81 226 throw~ master-delay;
#X connect 0 0 7 0;
#X connect 1 0 0 1;
#X connect 2 0 0 0;
#X connect 3 0 4 0;
#X connect 4 0 5 0;
#X connect 5 0 1 0;
#X connect 6 0 1 0;
