#N canvas 971 551 369 329 10;
#X obj 20 21 inlet~;
#X obj 66 75 vd~ \$0-del;
#X obj 73 97 outlet~;
#X obj 64 288 delwrite~ \$0-del \$1;
#X obj 66 21 inlet~;
#X obj 109 120 osc~ 0.1;
#X obj 109 160 +~ 1400;
#X obj 109 140 *~ 800;
#X obj 65 265 clip~ -1 1;
#X obj 66 181 low-res-filter~;
#X text 153 42 \$1 = Maximum possible delay time;
#X text 153 58 \$2 = Feedback gain;
#X obj 66 225 *~ \$2;
#X obj 126 202 inlet;
#X connect 0 0 8 0;
#X connect 1 0 2 0;
#X connect 1 0 9 0;
#X connect 4 0 1 0;
#X connect 5 0 7 0;
#X connect 6 0 9 1;
#X connect 7 0 6 0;
#X connect 8 0 3 0;
#X connect 9 0 12 0;
#X connect 12 0 8 0;
#X connect 13 0 12 1;
