#N canvas 0 22 450 300 10;
#X obj 166 101 t b f;
#X obj 112 48 inlet;
#X obj 205 50 inlet;
#X obj 154 248 outlet;
#X obj 152 130 -;
#X obj 162 180 *;
#X obj 155 155 t f f;
#X connect 0 0 4 0;
#X connect 0 1 4 1;
#X connect 1 0 4 0;
#X connect 2 0 0 0;
#X connect 4 0 6 0;
#X connect 5 0 3 0;
#X connect 6 0 5 0;
#X connect 6 1 5 1;
