#N canvas 609 134 616 381 10;
#X obj 149 33 inlet~;
#X obj 164 299 outlet~;
#X obj 379 92 inlet;
#X obj 414 148 inlet;
#X obj 226 29 inlet~;
#X obj 236 202 clip~ \$1 \$2;
#X obj 300 86 inlet~;
#X obj 216 140 peak-filter~;
#X connect 0 0 7 0;
#X connect 2 0 5 1;
#X connect 3 0 5 2;
#X connect 4 0 7 1;
#X connect 5 0 1 0;
#X connect 6 0 7 2;
#X connect 7 0 5 0;
