#N canvas 218 237 579 672 10;
#X obj 184 -58 inlet~;
#X obj 236 570 outlet~;
#X obj 376 -8 r \$1-set-distortion;
#X obj 401 201 max 2;
#X obj 401 225 - 2;
#X obj 374 24 unpack 0 0;
#X obj 48 -10 sel 0 1;
#X obj 41 273 vclop~;
#X obj 232 75 sel 1;
#X msg 232 100 0;
#X msg 270 102 1;
#X obj 280 288 * 700;
#X obj 116 424 *~;
#X obj 138 394 line~;
#X obj 457 64 s \$0-ramp;
#X obj 498 281 r \$0-ramp;
#X obj 94 70 r \$0-ramp;
#X obj 157 342 r \$0-ramp;
#X obj 138 368 pack 0 0;
#X obj 376 66 s \$0-amount;
#X obj 222 19 r \$0-amount;
#X obj 232 49 <= 2;
#X obj 401 171 r \$0-amount;
#X obj 48 -35 r \$0-amount;
#X obj 138 245 sel 0 1;
#X msg 191 268 1;
#X obj 138 221 r \$0-amount;
#X obj 446 248 * 60;
#X obj 229 516 hip~ 5;
#X obj 448 272 - 45;
#X obj 239 455 *~ 0.5;
#X obj 384 458 *~ 0.5;
#X obj 284 -50 loadbang;
#X msg 284 -25 2;
#N canvas 135 328 552 386 spigot 0;
#X obj 41 36 inlet~ sig;
#X obj 228 34 inlet toggle;
#X obj 130 324 outlet~ sig1;
#X obj 169 301 outlet~ sig2;
#X obj 225 60 select 0;
#X obj 213 259 line~;
#X obj 152 240 line~;
#X obj 130 279 *~;
#X obj 169 280 *~;
#X obj 156 49 loadbang;
#X obj 158 192 pack 0 0;
#X obj 185 155 r \$0-ramp;
#X msg 329 107 1;
#X msg 292 107 0;
#X msg 207 94 0;
#X msg 173 96 1;
#X obj 224 230 pack 0 0;
#X obj 251 193 r \$0-ramp;
#X connect 0 0 7 0;
#X connect 0 0 8 0;
#X connect 1 0 4 0;
#X connect 4 0 15 0;
#X connect 4 0 14 0;
#X connect 4 1 12 0;
#X connect 4 1 13 0;
#X connect 5 0 8 1;
#X connect 6 0 7 1;
#X connect 7 0 2 0;
#X connect 8 0 3 0;
#X connect 9 0 15 0;
#X connect 9 0 14 0;
#X connect 10 0 6 0;
#X connect 11 0 10 1;
#X connect 12 0 16 0;
#X connect 13 0 10 0;
#X connect 14 0 16 0;
#X connect 15 0 10 0;
#X connect 16 0 5 0;
#X connect 17 0 16 1;
#X restore 182 138 pd spigot;
#X obj 448 292 max 0;
#X obj 280 359 line~;
#X obj 282 325 pack 0 0;
#X obj 327 294 r \$0-ramp;
#X obj 73 141 logfreq 20000;
#X obj 74 171 sig~;
#X obj 74 92 pack 0 0;
#X obj 74 114 line 1;
#X msg 109 21 1;
#X msg 74 41 0.7;
#X msg 36 62 0.58;
#X obj 452 344 line~;
#X obj 452 366 lop~ 15;
#X obj 280 381 lop~ 15;
#X obj 448 314 pack 0 0;
#X obj 74 193 lop~ 15;
#X msg 164 291 1.1;
#X msg 138 316 1.1;
#X obj 384 432 distort~ -0.3 0.3;
#X obj 238 431 distort~ -0.5 0.5;
#X connect 0 0 34 0;
#X connect 2 0 5 0;
#X connect 3 0 4 0;
#X connect 4 0 11 0;
#X connect 4 0 27 0;
#X connect 5 0 19 0;
#X connect 5 1 14 0;
#X connect 6 0 45 0;
#X connect 6 1 44 0;
#X connect 6 2 43 0;
#X connect 7 0 12 0;
#X connect 8 0 9 0;
#X connect 8 1 10 0;
#X connect 9 0 34 1;
#X connect 10 0 34 1;
#X connect 11 0 37 0;
#X connect 12 0 28 0;
#X connect 13 0 12 1;
#X connect 15 0 49 1;
#X connect 16 0 41 1;
#X connect 17 0 18 1;
#X connect 18 0 13 0;
#X connect 20 0 21 0;
#X connect 21 0 8 0;
#X connect 22 0 3 0;
#X connect 23 0 6 0;
#X connect 24 0 52 0;
#X connect 24 1 51 0;
#X connect 24 2 25 0;
#X connect 25 0 18 0;
#X connect 26 0 24 0;
#X connect 27 0 29 0;
#X connect 28 0 1 0;
#X connect 29 0 35 0;
#X connect 30 0 28 0;
#X connect 31 0 28 0;
#X connect 32 0 33 0;
#X connect 33 0 5 0;
#X connect 34 0 7 0;
#X connect 34 1 53 0;
#X connect 34 1 54 0;
#X connect 35 0 49 0;
#X connect 36 0 48 0;
#X connect 37 0 36 0;
#X connect 38 0 37 1;
#X connect 39 0 40 0;
#X connect 40 0 50 0;
#X connect 41 0 42 0;
#X connect 42 0 39 0;
#X connect 43 0 41 0;
#X connect 44 0 41 0;
#X connect 45 0 41 0;
#X connect 46 0 47 0;
#X connect 47 0 53 2;
#X connect 47 0 54 2;
#X connect 48 0 53 1;
#X connect 48 0 54 1;
#X connect 49 0 46 0;
#X connect 50 0 7 1;
#X connect 51 0 18 0;
#X connect 52 0 18 0;
#X connect 53 0 31 0;
#X connect 54 0 30 0;
