#N canvas 555 304 1202 521 10;
#X obj 23 37 inlet~;
#X obj 23 151 fm-osc~ \$1 osc1;
#X obj 607 53 fm-osc~ \$1 osc3;
#X obj 316 105 fm-osc~ \$1 osc2;
#X obj 601 108 delwrite~ \$0-osc3-del 64;
#X obj 930 34 r \$1-osc3-set-feedback;
#X obj 930 56 * 0.0125;
#X obj 909 76 *~ 1;
#X obj 398 176 r \$1-osc2-set-feedback;
#X obj 110 207 r \$1-osc1-set-feedback;
#X obj 233 249 outlet~;
#X obj 542 202 outlet~;
#X obj 826 119 outlet~;
#X obj 909 11 delread~ \$0-osc3-del 0;
#X connect 0 0 1 0;
#X connect 0 0 2 0;
#X connect 0 0 3 0;
#X connect 1 1 10 0;
#X connect 2 0 3 1;
#X connect 2 0 4 0;
#X connect 2 1 12 0;
#X connect 3 0 1 1;
#X connect 3 1 11 0;
#X connect 5 0 6 0;
#X connect 6 0 7 1;
#X connect 7 0 2 1;
#X connect 13 0 7 0;
