#N canvas 609 378 610 342 10;
#X obj 29 21 inlet~;
#X obj 29 283 fm-osc~ \$1 osc1;
#X obj 355 210 delwrite~ \$0-osc3-del 64;
#X obj 463 105 r \$1-osc3-set-feedback;
#X obj 442 147 *~ 1;
#X obj 163 25 r \$1-osc1-set-feedback;
#X obj 463 127 * 0.0125;
#X obj 202 123 *~ 1;
#X obj 223 103 * 0.0125;
#X obj 223 81 r \$1-osc2-set-feedback;
#X obj 127 185 delwrite~ \$0-osc2-del 64;
#X obj 355 167 fm-osc~ \$1 osc3;
#X obj 115 144 fm-osc~ \$1 osc2;
#X obj 116 304 outlet~;
#X obj 202 164 outlet~;
#X obj 442 187 outlet~;
#X obj 202 58 delread~ \$0-osc2-del 0;
#X obj 442 82 delread~ \$0-osc3-del 0;
#X connect 0 0 1 0;
#X connect 0 0 11 0;
#X connect 0 0 12 0;
#X connect 1 1 13 0;
#X connect 3 0 6 0;
#X connect 4 0 11 1;
#X connect 6 0 4 1;
#X connect 7 0 12 1;
#X connect 8 0 7 1;
#X connect 9 0 8 0;
#X connect 11 0 2 0;
#X connect 11 0 1 1;
#X connect 11 1 15 0;
#X connect 12 0 1 1;
#X connect 12 0 10 0;
#X connect 12 1 14 0;
#X connect 16 0 7 0;
#X connect 17 0 4 0;
