#N canvas 920 409 586 308 10;
#X obj 46 16 inlet~;
#X obj 96 264 outlet~;
#X obj 10 243 fm-osc~ \$1 osc1;
#X obj 415 96 r \$1-osc3-set-feedback;
#X obj 418 70 r \$1-osc2-set-feedback;
#X obj 416 47 r \$1-osc1-set-feedback;
#X obj 282 118 fm-osc~ \$1 osc3;
#X obj 97 120 fm-osc~ \$1 osc2;
#X obj 184 141 outlet~;
#X obj 369 140 outlet~;
#X connect 0 0 2 0;
#X connect 0 0 6 0;
#X connect 0 0 7 0;
#X connect 2 1 1 0;
#X connect 6 0 2 1;
#X connect 6 1 9 0;
#X connect 7 0 2 1;
#X connect 7 1 8 0;
