#N canvas 103 194 1202 521 10;
#X obj 88 42 inlet~;
#X obj 177 426 outlet~;
#X obj 760 111 sel 0 1 2;
#X obj 760 83 unpack 0 0;
#X obj 760 58 r \$1-set-wave-shape;
#X obj 273 244 r \$1-osc2-set-gain;
#X obj 258 264 *~;
#X obj 117 296 *~;
#X obj 402 245 *~;
#X obj 417 224 r \$1-osc3-set-gain;
#X obj 132 275 r \$1-osc1-set-gain;
#X obj 110 94 \$2 \$1;
#X obj 633 376 s \$1-osc1-set-wave-shape;
#X msg 633 270 set sine;
#X obj 729 355 s \$1-osc2-set-wave-shape;
#X obj 862 335 s \$1-osc3-set-wave-shape;
#X msg 923 209 set soft-square;
#X msg 911 244 set soft-square;
#X msg 739 228 set soft-saw;
#X msg 768 254 set sine;
#X connect 0 0 11 0;
#X connect 2 0 13 0;
#X connect 2 1 19 0;
#X connect 2 1 18 0;
#X connect 2 2 16 0;
#X connect 2 2 17 0;
#X connect 3 0 2 0;
#X connect 4 0 3 0;
#X connect 5 0 6 1;
#X connect 6 0 1 0;
#X connect 7 0 1 0;
#X connect 8 0 1 0;
#X connect 9 0 8 1;
#X connect 10 0 7 1;
#X connect 11 0 7 0;
#X connect 11 1 6 0;
#X connect 11 2 8 0;
#X connect 13 0 12 0;
#X connect 13 0 14 0;
#X connect 13 0 15 0;
#X connect 16 0 12 0;
#X connect 17 0 14 0;
#X connect 17 0 15 0;
#X connect 18 0 12 0;
#X connect 19 0 14 0;
#X connect 19 0 15 0;
