#N canvas 883 401 299 260 10;
#X obj 65 226 outlet;
#X obj 21 226 outlet;
#X obj 53 20 inlet;
#X obj 65 206 f;
#X obj 21 116 sel 1 0;
#X obj 53 40 t f f;
#X obj 21 96 \$1 \$2;
#X obj 118 39 inlet;
#X obj 21 206 f;
#X connect 2 0 5 0;
#X connect 3 0 0 0;
#X connect 4 0 8 0;
#X connect 4 1 3 0;
#X connect 5 0 6 0;
#X connect 5 1 3 1;
#X connect 5 1 8 1;
#X connect 6 0 4 0;
#X connect 7 0 6 1;
#X connect 8 0 1 0;
