#N canvas 516 212 514 327 10;
#X obj 110 107 hsl 128 15 -1 1 0 0 empty empty LFO 56 8 0 10 -262144
-1 -1 339 1;
#X obj 321 200 snapshot~;
#X obj 302 15 1;
#X obj 299 -32 loadbang;
#X obj 292 54 metro 50;
#X obj 242 8 osc~ \$1;
#X text 116 126 LFO Rate:;
#X floatatom 179 127 5 0 0 0 - - -;
#X obj 111 149 hsl 128 15 0.01 100 1 0 empty empty GAIN 56 8 0 10 -262144
-1 -1 4094 1;
#X obj 154 38 \$1;
#X obj 252 167 *~ 1;
#X obj 252 233 outlet~;
#X obj 323 232 outlet;
#X obj 266 88 snapshot~;
#X obj 236 60 +~ 1;
#X obj 119 39 0.5;
#X obj 346 118 clip~ 1 0;
#X connect 1 0 12 0;
#X connect 2 0 4 0;
#X connect 3 0 2 0;
#X connect 3 0 9 0;
#X connect 3 0 15 0;
#X connect 4 0 1 0;
#X connect 4 0 13 0;
#X connect 5 0 13 0;
#X connect 5 0 14 0;
#X connect 7 0 5 0;
#X connect 8 0 10 1;
#X connect 9 0 7 0;
#X connect 10 0 11 0;
#X connect 10 0 1 0;
#X connect 13 0 0 0;
#X connect 14 0 10 0;
#X connect 15 0 8 0;
#X coords 0 -1 1 1 147 71 2 100 100;
