#N canvas 133 124 686 303 10;
#X obj 522 17 cnv 15 140 260 empty empty AMP_FADING 20 12 0 14 -261682
-66577 0;
#X obj 176 17 cnv 15 200 260 empty empty PHASOR_FREQ 20 12 0 14 -261234
-66577 0;
#X obj 384 17 cnv 15 130 200 empty empty PHASOR_SCALE 20 12 0 14 -204786
-66577 0;
#X obj 414 126 - 2;
#X obj 18 23 r \$1-play;
#X obj 243 47 r \$1-set-speed;
#X obj 393 190 outlet~;
#X obj 393 146 *~ 1;
#X obj 393 84 phasor~ 0;
#X obj 251 133 / 44100;
#X obj 251 153 swap 1;
#X obj 251 175 /;
#X obj 243 218 *;
#X obj 251 196 t b f;
#X msg 37 107 0;
#X obj 393 168 +~ 1;
#X obj 574 49 r \$1-stop;
#X obj 574 69 t b b;
#X obj 607 171 loadbang;
#X obj 532 97 delay 50;
#X msg 601 193 0 30;
#X obj 243 89 line 1;
#X msg 243 68 \$1 \$2;
#X obj 184 142 loadbang;
#X msg 184 163 1;
#X msg 532 192 1 10;
#X obj 18 43 t b b b;
#X obj 243 240 s \$0-freq;
#X obj 393 41 r \$0-freq;
#X obj 532 142 s \$0-freq;
#X msg 532 119 0;
#X obj 444 62 r \$0-phase;
#X obj 37 129 s \$0-phase;
#X obj 57 86 s \$0-length;
#X obj 251 112 r \$0-length;
#X obj 414 105 r \$0-length;
#X obj 18 150 s \$0-start;
#X obj 532 171 r \$0-start;
#X obj 576 219 line~;
#X obj 576 241 outlet~;
#X obj 57 65 v \$2-sample-length;
#X connect 3 0 7 1;
#X connect 4 0 26 0;
#X connect 5 0 22 0;
#X connect 7 0 15 0;
#X connect 8 0 7 0;
#X connect 9 0 10 0;
#X connect 10 0 11 0;
#X connect 10 1 11 1;
#X connect 11 0 13 0;
#X connect 12 0 27 0;
#X connect 13 0 12 0;
#X connect 13 1 12 1;
#X connect 14 0 32 0;
#X connect 15 0 6 0;
#X connect 16 0 17 0;
#X connect 17 0 19 0;
#X connect 17 1 20 0;
#X connect 18 0 20 0;
#X connect 19 0 30 0;
#X connect 20 0 38 0;
#X connect 21 0 12 0;
#X connect 22 0 21 0;
#X connect 23 0 24 0;
#X connect 24 0 12 0;
#X connect 25 0 38 0;
#X connect 26 0 36 0;
#X connect 26 1 14 0;
#X connect 26 2 40 0;
#X connect 28 0 8 0;
#X connect 30 0 29 0;
#X connect 31 0 8 1;
#X connect 34 0 9 0;
#X connect 35 0 3 0;
#X connect 37 0 25 0;
#X connect 38 0 39 0;
#X connect 40 0 33 0;
