#N canvas 209 103 578 257 10;
#X obj 93 134 -~ 0.5;
#X obj 242 156 *~ 2;
#X obj 93 155 *~ 2;
#X obj 30 134 *~;
#X obj 179 156 *~;
#X obj 124 36 r \$1-set-\$2-balance;
#X obj 179 62 catch~ \$2-master-R;
#X obj 30 13 catch~ \$2-master-L;
#X obj 302 84 line~;
#X obj 124 88 line~;
#X obj 312 10 loadbang;
#X msg 131 62 0.5 10;
#X obj 179 176 purepanner~;
#X obj 30 175 purepanner~;
#X obj 302 40 r \$1-set-\$2-gain;
#X obj 179 222 throw~ \$1-final-R;
#X obj 30 222 throw~ \$1-final-L;
#X msg 312 61 1 10;
#X text 364 112 \$1 = ComponentID;
#X text 364 125 \$2 = Track number;
#X connect 0 0 2 0;
#X connect 1 0 12 1;
#X connect 2 0 13 1;
#X connect 3 0 13 0;
#X connect 4 0 12 0;
#X connect 5 0 9 0;
#X connect 6 0 4 0;
#X connect 7 0 3 0;
#X connect 8 0 3 1;
#X connect 8 0 4 1;
#X connect 9 0 0 0;
#X connect 9 0 1 0;
#X connect 10 0 11 0;
#X connect 10 0 17 0;
#X connect 11 0 9 0;
#X connect 12 0 16 0;
#X connect 12 1 15 0;
#X connect 13 0 16 0;
#X connect 13 1 15 0;
#X connect 14 0 8 0;
#X connect 17 0 8 0;
#X coords 0 257 1 256 150 110 0;
