#N canvas 365 364 543 442 12;
#X obj 72 322 +~;
#X obj 75 264 *~ 0.7;
#X obj 191 122 vcf~ 9.74;
#X obj 72 377 outlet~;
#X obj 202 22 inlet~;
#X obj 58 43 inlet~;
#X obj 57 70 *~ 1;
#X obj 190 269 *~;
#X obj 331 133 inlet~;
#X connect 0 0 3 0;
#X connect 1 0 0 0;
#X connect 2 0 7 0;
#X connect 4 0 2 1;
#X connect 5 0 6 0;
#X connect 6 0 2 0;
#X connect 6 0 1 0;
#X connect 7 0 0 1;
#X connect 8 0 7 1;
