#N canvas 933 481 365 393 10;
#X obj 58 170 inlet~;
#X obj 106 16 inlet set-wave-shape;
#X obj 28 330 outlet~;
#X obj 28 310 crossfade~;
#X obj 106 95 f 0;
#X obj 106 117 + 1;
#X obj 106 137 % 2;
#X obj 28 215 f;
#X obj 106 183 sel 0 1;
#X obj 159 214 message;
#X obj 106 214 message;
#X obj 106 36 t b b a;
#X obj 14 80 loadbang;
#X msg 14 102 0;
#X obj 58 192 *~ 259;
#X obj 57 250 tabread4~ \$1;
#X obj 151 250 tabread4~ \$1;
#X connect 0 0 14 0;
#X connect 1 0 11 0;
#X connect 3 0 2 0;
#X connect 4 0 5 0;
#X connect 5 0 6 0;
#X connect 6 0 4 1;
#X connect 6 0 7 1;
#X connect 6 0 8 0;
#X connect 7 0 3 0;
#X connect 8 0 10 0;
#X connect 8 1 9 0;
#X connect 9 0 16 0;
#X connect 10 0 15 0;
#X connect 11 0 7 0;
#X connect 11 1 4 0;
#X connect 11 2 9 1;
#X connect 11 2 10 1;
#X connect 12 0 13 0;
#X connect 13 0 3 0;
#X connect 14 0 15 0;
#X connect 14 0 16 0;
#X connect 15 0 3 1;
#X connect 16 0 3 2;
