#N canvas 61 147 790 392 12;
#X obj 122 198 samphold~;
#X obj 95 148 phasor~;
#X obj 101 352 delwrite~ \$0-del 64;
#X obj 115 73 delread~ \$0-del 64;
#X obj 121 223 +~ 0.5;
#X obj 121 248 wrap~;
#X obj 121 273 -~ 0.5;
#X obj 101 299 -~;
#X obj 31 17 inlet~ freq;
#X obj 19 341 outlet~;
#X text 453 51 HAVN'T TESTED THIS YET. MIGHT NOT WORK.;
#X obj 502 223 scope~;
#X obj 285 218 scope~;
#X obj 337 26 inlet~;
#X obj 11 205 f~;
#X obj 13 160 f~;
#X msg 169 117 0.5;
#X obj 94 121 +~;
#X obj 115 97 +~ 0;
#X obj 101 324 *~ 1;
#X connect 0 0 4 0;
#X connect 1 0 0 0;
#X connect 1 0 9 0;
#X connect 1 0 12 0;
#X connect 3 0 18 0;
#X connect 4 0 5 0;
#X connect 5 0 6 0;
#X connect 6 0 7 1;
#X connect 7 0 19 0;
#X connect 8 0 17 0;
#X connect 13 0 0 1;
#X connect 13 0 12 0;
#X connect 16 0 1 1;
#X connect 17 0 1 0;
#X connect 17 0 15 0;
#X connect 18 0 17 1;
#X connect 19 0 14 0;
#X connect 19 0 2 0;
