#N canvas 160 87 575 839 10;
#X text 152 11 posDiff.pd;
#X obj 70 66 unpack 0 0 0;
#X obj 250 135 unpack 0 0 0;
#X obj 226 674 outlet;
#X obj 162 278 +;
#X obj 162 240 t b f;
#X obj 245 329 +;
#X obj 245 291 t b f;
#X obj 245 350 sqrt;
#X obj 332 69 r listener-pos;
#X obj 70 36 inlet source-pos;
#X obj 245 372 max 1;
#X obj 93 202 differ;
#X obj 245 210 differ;
#X obj 162 216 differ;
#X obj 257 393 t b f;
#X obj 174 384 sel 0;
#X obj 226 597 switch2;
#X msg 209 457 1;
#X msg 158 563 2;
#X msg 265 574 1;
#X floatatom 188 626 5 0 0 0 - - -;
#X obj 184 423 loadbang;
#X obj 250 26 s get-listener-transform;
#X obj 250 5 loadbang;
#X obj 226 651 * 0;
#X msg 332 562 1;
#X msg 25 346 0;
#X obj 139 481 t b b b;
#X floatatom 309 278 5 0 0 0 - - -;
#X obj 245 416 / 1;
#X obj 288 436 r \$1-set-rolloff-type;
#X msg 288 458 set \$1;
#X obj 245 500 tabread rolloff-cos;
#X obj 63 330 r \$1-set-rolloff-max;
#X obj 245 436 * 1000;
#X floatatom 370 322 5 0 0 0 - - -;
#X connect 1 0 12 0;
#X connect 1 1 14 0;
#X connect 1 2 13 0;
#X connect 2 0 12 1;
#X connect 2 1 14 1;
#X connect 2 2 13 1;
#X connect 4 0 6 0;
#X connect 5 0 4 0;
#X connect 5 1 4 1;
#X connect 6 0 8 0;
#X connect 7 0 6 0;
#X connect 7 1 6 1;
#X connect 8 0 11 0;
#X connect 9 0 26 0;
#X connect 9 0 2 0;
#X connect 10 0 1 0;
#X connect 11 0 30 0;
#X connect 12 0 4 0;
#X connect 13 0 7 0;
#X connect 14 0 5 0;
#X connect 15 0 30 0;
#X connect 15 1 30 1;
#X connect 16 0 28 0;
#X connect 16 1 15 0;
#X connect 16 1 18 0;
#X connect 17 0 21 0;
#X connect 17 0 25 0;
#X connect 18 0 17 0;
#X connect 19 0 17 0;
#X connect 20 0 17 2;
#X connect 22 0 18 0;
#X connect 24 0 23 0;
#X connect 25 0 3 0;
#X connect 26 0 25 1;
#X connect 27 0 16 0;
#X connect 28 0 20 0;
#X connect 28 1 19 0;
#X connect 28 2 26 0;
#X connect 29 0 8 0;
#X connect 30 0 35 0;
#X connect 31 0 32 0;
#X connect 32 0 33 0;
#X connect 33 0 17 1;
#X connect 34 0 16 0;
#X connect 35 0 33 0;
#X connect 36 0 8 0;
