#N canvas 1156 405 620 465 10;
#X obj 251 46 loadbang;
#X obj 355 97 list split 3;
#X text 436 143 <- Sorts out gain;
#X obj 34 92 inlet~ L;
#X obj 133 89 inlet~ R;
#N canvas 759 379 363 314 gainer 0;
#X obj 179 172 *~;
#X obj 184 254 outlet~;
#X obj 73 253 outlet~;
#X obj 79 164 *~;
#X obj 26 30 inlet~ L;
#X obj 116 33 inlet~ R;
#X obj 191 91 sig~;
#X obj 199 19 inlet gain;
#X obj 190 114 lop~ 10;
#X obj 199 41 clip 0 0.8;
#X connect 0 0 1 0;
#X connect 3 0 2 0;
#X connect 4 0 3 0;
#X connect 5 0 0 0;
#X connect 6 0 8 0;
#X connect 7 0 9 0;
#X connect 8 0 3 1;
#X connect 8 0 0 1;
#X connect 9 0 6 0;
#X restore 132 238 pd gainer;
#X obj 355 72 r \$1-set-transform;
#X obj 117 322 hip~ 20;
#X obj 117 299 lop~ 20000;
#X obj 206 320 hip~ 20;
#X obj 206 297 lop~ 20000;
#X obj 251 90 t b b;
#X obj 327 258 s get-listener-transform;
#X msg 251 115 0;
#X obj 201 361 throw~ \$2-master-R;
#X obj 88 393 throw~ \$2-master-L;
#X obj 342 144 pos-diff \$1;
#X connect 0 0 11 0;
#X connect 1 0 16 0;
#X connect 3 0 5 0;
#X connect 4 0 5 1;
#X connect 5 0 8 0;
#X connect 5 1 10 0;
#X connect 6 0 1 0;
#X connect 7 0 15 0;
#X connect 8 0 7 0;
#X connect 9 0 14 0;
#X connect 10 0 9 0;
#X connect 11 0 13 0;
#X connect 11 1 12 0;
#X connect 13 0 5 2;
#X connect 16 0 5 2;
