#N canvas 538 123 539 421 10;
#X obj 150 86 list split 3;
#N canvas 587 99 454 327 panner 0;
#X obj 189 250 *~;
#X obj 11 251 *~;
#X obj 11 124 *~;
#X obj 245 73 sig~;
#X obj 189 271 outlet~;
#X obj 11 272 outlet~;
#X obj 245 31 inlet pan;
#X obj 11 9 inlet~ sig;
#X obj 78 74 sig~;
#X obj 78 30 inlet gain;
#X obj 78 96 lop~ 10;
#X obj 245 52 clip 0 1;
#X obj 26 204 cos~;
#X obj 26 183 -~ 0.25;
#X obj 244 169 cos~;
#X obj 245 125 *~ 0.25;
#X obj 245 147 -~ 0.25;
#X obj 78 52 clip 0 4;
#X obj 245 95 lop~ 30;
#X floatatom 151 58 5 0 0 0 - - -;
#X floatatom 29 87 5 0 0 0 - - -;
#X connect 0 0 4 0;
#X connect 1 0 5 0;
#X connect 2 0 1 0;
#X connect 2 0 0 0;
#X connect 3 0 18 0;
#X connect 6 0 11 0;
#X connect 7 0 2 0;
#X connect 8 0 10 0;
#X connect 9 0 17 0;
#X connect 9 0 19 0;
#X connect 10 0 2 1;
#X connect 11 0 3 0;
#X connect 12 0 1 1;
#X connect 13 0 12 0;
#X connect 14 0 0 1;
#X connect 15 0 16 0;
#X connect 16 0 13 0;
#X connect 16 0 14 0;
#X connect 17 0 8 0;
#X connect 17 0 20 0;
#X connect 18 0 15 0;
#X restore 24 187 pd panner;
#X text 313 148 <- Sorts out panning;
#X text 177 113 <- Sorts out gain;
#X obj 150 61 r \$1-set-transform;
#X obj 246 339 hsl 128 15 0 1 0 0 empty empty empty -2 -8 0 10 -262144
-1 -1 0 1;
#X obj 24 13 inlet~ mono-signal;
#X obj 24 357 throw~ \$2-master-L;
#X obj 74 335 throw~ \$2-master-R;
#X obj 49 70 loadbang;
#X msg 49 92 0;
#X msg 82 93 0.5;
#X obj 106 114 pos-diff \$1;
#X obj 243 150 rot-diff \$1;
#X obj 100 269 reverb-send~ \$1 0;
#X obj 105 237 delay-send~ \$1 0;
#X obj 24 35 clip~ -1 1;
#X text 96 34 <- This is a limiter \, hah!;
#X connect 0 0 12 0;
#X connect 0 0 13 0;
#X connect 1 0 7 0;
#X connect 1 0 15 0;
#X connect 1 0 14 0;
#X connect 1 1 8 0;
#X connect 1 1 15 0;
#X connect 1 1 14 0;
#X connect 4 0 0 0;
#X connect 6 0 16 0;
#X connect 9 0 10 0;
#X connect 9 0 11 0;
#X connect 10 0 1 1;
#X connect 11 0 1 2;
#X connect 12 0 1 1;
#X connect 13 0 5 0;
#X connect 13 0 1 2;
#X connect 16 0 1 0;
