#N canvas 125 152 580 645 10;
#X obj 186 240 unpack 0 0 0;
#X obj 18 43 unpack 0 0 0;
#X obj 88 254 atan2;
#X obj 124 43 unpack 0 0 0;
#X obj 88 168 -;
#X obj 79 117 t b f;
#X obj 115 168 -;
#X obj 143 126 t b f;
#X obj 88 361 sin;
#X obj 88 421 + 0.5;
#X obj 88 484 outlet pan_data_0_to_1;
#X obj 220 283 degtorad;
#X obj 124 23 r listener-pos;
#X obj 186 219 r listener-rot;
#X obj 18 23 inlet source-pos;
#X obj 220 262 + 90;
#X obj 88 341 +;
#X obj 96 318 t b f;
#X obj 112 206 t b f;
#X obj 87 231 f;
#X obj 88 381 * 0.3;
#X obj 263 50 loadbang;
#X obj 263 72 s get-listener-transform;
#X obj 151 316 r \$1-set-pan-amount;
#X obj 88 454 clip 0 1;
#X obj 130 400 * -1;
#X obj 151 356 + 0.5;
#X obj 130 421 + 1;
#X obj 151 336 * 0.5;
#X floatatom 51 486 5 0 0 0 - - -;
#X obj 151 376 t f f;
#X floatatom 43 390 5 0 0 0 - - -;
#X floatatom 210 346 5 0 0 0 - - -;
#X floatatom 328 406 5 0 0 0 - - -;
#X floatatom 326 423 5 0 0 0 - - -;
#X floatatom 38 301 5 0 0 0 - - -;
#X floatatom 346 321 5 0 0 0 - - -;
#X connect 0 1 15 0;
#X connect 1 0 4 0;
#X connect 1 2 6 0;
#X connect 2 0 16 0;
#X connect 2 0 35 0;
#X connect 3 0 5 0;
#X connect 3 2 7 0;
#X connect 4 0 18 0;
#X connect 5 0 4 0;
#X connect 5 1 4 1;
#X connect 6 0 19 0;
#X connect 7 0 6 0;
#X connect 7 1 6 1;
#X connect 8 0 20 0;
#X connect 8 0 31 0;
#X connect 9 0 24 0;
#X connect 11 0 17 0;
#X connect 11 0 36 0;
#X connect 12 0 3 0;
#X connect 13 0 0 0;
#X connect 14 0 1 0;
#X connect 15 0 11 0;
#X connect 16 0 8 0;
#X connect 17 0 16 0;
#X connect 17 1 16 1;
#X connect 18 0 19 0;
#X connect 18 1 2 1;
#X connect 19 0 2 0;
#X connect 20 0 9 0;
#X connect 21 0 22 0;
#X connect 23 0 28 0;
#X connect 23 0 32 0;
#X connect 24 0 10 0;
#X connect 24 0 29 0;
#X connect 25 0 27 0;
#X connect 26 0 30 0;
#X connect 27 0 24 1;
#X connect 27 0 34 0;
#X connect 28 0 26 0;
#X connect 30 0 25 0;
#X connect 30 1 24 2;
#X connect 30 1 33 0;
