#N canvas 176 118 414 296 12;
#X obj 109 132 random 100;
#X obj 247 121 line;
#X obj 47 17 sample \$1-samp;
#X obj 107 107 r \$1-play;
#X obj 247 96 r \$2-set-\$1-chance;
#X msg 107 196 bang;
#X obj 107 171 moses 100;
#X obj 41 77 r \$1-always-play;
#X obj 104 232 tabplay~ \$1-samp-sample-L;
#X obj 104 257 outlet~;
#X connect 0 0 6 0;
#X connect 1 0 6 1;
#X connect 3 0 0 0;
#X connect 4 0 1 0;
#X connect 5 0 8 0;
#X connect 6 0 5 0;
#X connect 7 0 5 0;
#X connect 8 0 9 0;
