#N canvas 1204 280 339 474 10;
#X msg 24 392 add \$1 \$2 \$3 \$4 \$5 \$6 \$7;
#X obj 13 15 r \$1-beat-\$2-bang;
#X msg 13 40 bang;
#X obj 24 371 argnumber2 add;
#X msg 99 415 set;
#X msg 43 415 addsemi;
#X obj 94 199 r \$1-beat-\$2-clear;
#X obj 34 108 r \$1-beat-\$2-add;
#X msg 61 177 add2 \$1 \$2 \$3 \$4 \$5 \$6 \$7;
#X obj 61 152 argnumber2 add2;
#X msg 34 199 addcomma;
#X obj 34 130 t b a;
#X msg 94 240 set;
#X obj 24 60 r \$1-beat-\$2-flush;
#X obj 24 82 t b b b;
#X obj 142 60 r \$1-beat-all-flush;
#X obj 101 220 r \$1-beat-all-clear;
#X msg 24 266;
#X msg 13 447;
#X connect 0 0 18 0;
#X connect 1 0 2 0;
#X connect 2 0 18 0;
#X connect 3 0 0 0;
#X connect 4 0 18 0;
#X connect 5 0 18 0;
#X connect 6 0 12 0;
#X connect 7 0 11 0;
#X connect 8 0 17 0;
#X connect 9 0 8 0;
#X connect 10 0 17 0;
#X connect 11 0 10 0;
#X connect 11 1 9 0;
#X connect 12 0 17 0;
#X connect 13 0 14 0;
#X connect 14 0 17 0;
#X connect 14 1 5 0;
#X connect 14 2 4 0;
#X connect 15 0 14 0;
#X connect 16 0 12 0;
#X connect 17 0 3 0;
