#N canvas 1071 653 522 262 10;
#X obj 25 67 inlet stop;
#X obj 68 91 inlet tempo;
#X text 28 119 Tempo:;
#X floatatom 68 121 5 0 0 0 - - -;
#X obj 68 182 * 60;
#X obj 17 207 metro 500;
#X msg 25 92 stop;
#X obj 17 229 outlet;
#X obj 81 207 outlet;
#X obj 68 161 /;
#X obj 68 139 swap 1000;
#X obj 17 1 inlet start;
#X floatatom 146 209 5 0 0 0 - - -;
#X msg 17 22 1;
#X obj 17 43 t f b;
#X text 107 117 SPM;
#X text 109 24 \$1 = ComponentID;
#X text 138 123 This section divides the recieved tempo by 1000 before
multiplying it by 60 This ensures that the bpm value received can be
a human-readable 4/4 spm (equivalent to a 16/16 bpm) \, which is translated
into the milliseconds value required by the metro object.;
#X connect 0 0 6 0;
#X connect 1 0 3 0;
#X connect 3 0 10 0;
#X connect 4 0 8 0;
#X connect 4 0 5 1;
#X connect 4 0 12 0;
#X connect 5 0 7 0;
#X connect 6 0 5 0;
#X connect 9 0 4 0;
#X connect 10 0 9 0;
#X connect 10 1 9 1;
#X connect 11 0 13 0;
#X connect 13 0 14 0;
#X connect 14 0 5 0;
#X connect 14 1 3 0;
