#N canvas 374 114 645 600 10;
#X obj 27 168 inlet~;
#X obj 30 548 outlet~;
#X obj 223 436 dac~;
#X obj 129 300 spigot~;
#X obj 55 302 r \$0-active;
#X obj 192 488 sig~;
#X obj 229 268 r \$0-listen;
#X obj 85 401 metro 87;
#X obj 84 338 r \$0-rate-s;
#X obj 27 260 clip~ -1 1;
#X obj 147 373 sel 0;
#X obj 430 190 inlet~;
#X obj 433 466 outlet~;
#X obj 341 264 clip~ -1 1;
#X obj 305 312 spigot~;
#X obj 225 313 r \$0-gain-s;
#X obj 225 332 logfreq 1;
#X obj 225 354 sig~;
#X obj 225 376 lop~ 5;
#X obj 163 12 loadbang;
#X obj 91 58 s \$0-active;
#X obj 163 58 s \$0-rate-r;
#X msg 91 38 1;
#X msg 163 38 87;
#X obj 347 60 s \$0-gain-r;
#X msg 237 38 0.5;
#X obj 211 401 *~;
#X obj 274 400 *~;
#X obj 307 427 bng 15 250 50 0 empty empty empty 17 7 0 10 -262144
-1 -1;
#N canvas 0 0 450 300 (subpatch) 0;
#X array \$0-table-R 512 float 4;
#X coords 0 1 511 -1 200 70 2 0 0;
#X restore 100 185 graph;
#N canvas 0 0 450 300 (subpatch) 0;
#X array \$0-table-L 512 float 4;
#X coords 0 1 511 -1 200 70 2 0 0;
#X restore 100 115 graph;
#X obj 101 101 cnv 10 198 13 empty empty empty 20 12 0 14 -228856 -66577
0;
#X obj 142 100 tgl 15 0 \$0-active \$0-active empty 17 7 0 10 -262144
-1 -1 1 1;
#X text 101 100 Active;
#X obj 253 100 tgl 15 0 \$0-listen \$0-listen empty 17 7 0 10 -262144
-1 -1 0 1;
#X text 212 100 Listen;
#X floatatom 186 100 4 0 0 0 - #0-rate-r #0-rate-s;
#X text 158 100 Rate;
#X floatatom 271 100 4 0.0001 1 0 - #0-gain-r #0-gain-s;
#X obj 194 566 tabwrite~ \$0-table-L;
#X obj 74 519 tabwrite~ \$0-table-L;
#X obj 223 529 tabwrite~ \$0-table-R;
#X obj 352 496 tabwrite~ \$0-table-R;
#X connect 0 0 9 0;
#X connect 0 0 40 0;
#X connect 3 1 26 0;
#X connect 4 0 7 0;
#X connect 4 0 10 0;
#X connect 5 0 39 0;
#X connect 5 0 41 0;
#X connect 6 0 3 1;
#X connect 6 0 14 1;
#X connect 7 0 40 0;
#X connect 7 0 42 0;
#X connect 8 0 7 1;
#X connect 9 0 3 0;
#X connect 9 0 1 0;
#X connect 10 0 39 0;
#X connect 10 0 41 0;
#X connect 11 0 12 0;
#X connect 11 0 13 0;
#X connect 11 0 42 0;
#X connect 13 0 14 0;
#X connect 14 1 27 1;
#X connect 15 0 16 0;
#X connect 16 0 17 0;
#X connect 17 0 18 0;
#X connect 18 0 26 1;
#X connect 18 0 27 0;
#X connect 19 0 22 0;
#X connect 19 0 23 0;
#X connect 19 0 25 0;
#X connect 22 0 20 0;
#X connect 23 0 21 0;
#X connect 25 0 24 0;
#X connect 26 0 2 0;
#X connect 27 0 2 1;
#X connect 28 0 42 0;
#X coords 0 -1 1 1 200 155 2 100 100;
