#N canvas 164 214 676 544 10;
#X obj 65 33 unpack 0 0 0 0 0 0;
#X obj 65 12 r \$1-set-oscillators;
#X obj 19 11 inlet~;
#X obj 207 266 sel 0 1 2;
#X text 137 181 waveshape 0 is circle \, 1 is triangle \, 2 is square
;
#X obj 245 238 unpack 0 0;
#X msg 44 335 0.7;
#X msg 128 337 0.05;
#X msg 83 333 0.07;
#X msg 405 334 0;
#X msg 275 333 1;
#X msg 363 332 0.8;
#X msg 312 332 0.05;
#X msg 235 331 0.1;
#X msg 182 330 0.125;
#X obj 165 463 s~ \$0-osc1;
#X obj 254 463 s~ \$0-osc2;
#X obj 344 463 s~ \$0-osc3;
#X obj 34 88 r~ \$0-osc1;
#X obj 133 89 r~ \$0-osc2;
#X obj 234 89 r~ \$0-osc3;
#X obj 219 109 *~;
#X obj 119 109 *~;
#X obj 19 108 *~;
#X obj 165 438 line~;
#X obj 254 438 line~;
#X obj 344 438 line~;
#X obj 466 220 loadbang;
#X msg 466 245 1;
#X obj 245 213 r \$1-set-wave-shape;
#X obj 19 141 outlet~;
#X obj 18 67 triple-osc~ 1.01 1 0.5 0.3 1.01 0.3;
#X connect 0 0 31 1;
#X connect 0 1 31 2;
#X connect 0 2 31 3;
#X connect 0 3 31 4;
#X connect 0 4 31 5;
#X connect 0 5 31 6;
#X connect 1 0 0 0;
#X connect 2 0 31 0;
#X connect 3 0 6 0;
#X connect 3 0 8 0;
#X connect 3 0 7 0;
#X connect 3 1 14 0;
#X connect 3 1 13 0;
#X connect 3 1 10 0;
#X connect 3 2 12 0;
#X connect 3 2 11 0;
#X connect 3 2 9 0;
#X connect 5 0 3 0;
#X connect 5 1 24 1;
#X connect 5 1 25 1;
#X connect 5 1 26 1;
#X connect 6 0 24 0;
#X connect 7 0 26 0;
#X connect 8 0 25 0;
#X connect 9 0 26 0;
#X connect 10 0 26 0;
#X connect 11 0 25 0;
#X connect 12 0 24 0;
#X connect 13 0 25 0;
#X connect 14 0 24 0;
#X connect 18 0 23 1;
#X connect 19 0 22 1;
#X connect 20 0 21 1;
#X connect 21 0 30 0;
#X connect 22 0 30 0;
#X connect 23 0 30 0;
#X connect 24 0 15 0;
#X connect 25 0 16 0;
#X connect 26 0 17 0;
#X connect 27 0 28 0;
#X connect 28 0 3 0;
#X connect 29 0 5 0;
#X connect 31 0 23 0;
#X connect 31 1 22 0;
#X connect 31 2 21 0;
