#N canvas 406 138 687 563 10;
#X obj 82 310 inlet;
#X obj 195 315 inlet;
#X obj 365 315 inlet;
#X obj 549 316 inlet;
#X obj 23 22 inlet;
#X obj 100 404 outlet;
#X obj 94 347 spigot;
#X obj 124 310 tgl 15 0 empty empty empty 17 7 0 10 -262144 -1 -1 1
1;
#X obj 236 349 spigot;
#X obj 266 312 tgl 15 0 empty empty empty 17 7 0 10 -262144 -1 -1 0
7;
#X obj 391 347 spigot;
#X obj 421 310 tgl 15 0 empty empty empty 17 7 0 10 -262144 -1 -1 0
7;
#X obj 560 346 spigot;
#X obj 590 309 tgl 15 0 empty empty empty 17 7 0 10 -262144 -1 -1 0
1;
#X obj 33 53 select 1 2 3 4;
#X obj 72 216 0;
#X obj 107 218 0;
#X obj 70 176 0;
#X obj 138 181 0;
#X obj 105 131 0;
#X obj 138 134 0;
#X obj 35 97 1;
#X obj 71 96 0;
#X obj 106 98 0;
#X obj 139 101 0;
#X obj 36 217 0;
#X obj 140 222 1;
#X obj 105 178 1;
#X obj 34 177 0;
#X obj 34 130 0;
#X obj 70 129 1;
#X msg 224 92 0;
#X msg 262 92 0;
#X msg 302 94 0;
#X msg 190 93 0;
#X connect 0 0 6 0;
#X connect 1 0 8 0;
#X connect 2 0 10 0;
#X connect 3 0 12 0;
#X connect 4 0 14 0;
#X connect 6 0 5 0;
#X connect 7 0 6 1;
#X connect 8 0 5 0;
#X connect 9 0 8 1;
#X connect 10 0 5 0;
#X connect 11 0 10 1;
#X connect 12 0 5 0;
#X connect 13 0 12 1;
#X connect 14 0 21 0;
#X connect 14 0 22 0;
#X connect 14 0 23 0;
#X connect 14 0 24 0;
#X connect 14 1 29 0;
#X connect 14 1 30 0;
#X connect 14 1 19 0;
#X connect 14 1 20 0;
#X connect 14 2 28 0;
#X connect 14 2 17 0;
#X connect 14 2 27 0;
#X connect 14 2 18 0;
#X connect 14 3 25 0;
#X connect 14 3 15 0;
#X connect 14 3 16 0;
#X connect 14 3 26 0;
#X connect 14 4 34 0;
#X connect 14 4 31 0;
#X connect 14 4 32 0;
#X connect 14 4 33 0;
#X connect 15 0 9 0;
#X connect 16 0 11 0;
#X connect 17 0 9 0;
#X connect 18 0 13 0;
#X connect 19 0 11 0;
#X connect 20 0 13 0;
#X connect 21 0 7 0;
#X connect 22 0 9 0;
#X connect 23 0 11 0;
#X connect 24 0 13 0;
#X connect 25 0 7 0;
#X connect 26 0 13 0;
#X connect 27 0 11 0;
#X connect 28 0 7 0;
#X connect 29 0 7 0;
#X connect 30 0 9 0;
#X connect 31 0 9 0;
#X connect 32 0 11 0;
#X connect 33 0 13 0;
#X connect 34 0 7 0;
