#N canvas 777 314 489 410 10;
#X obj 30 120 vclop~;
#X obj 30 173 +~;
#X obj 30 141 *~ 0.7;
#X obj 108 99 vcf~ 9.74;
#X obj 30 194 outlet~;
#X obj 63 99 -~ 100;
#X obj 133 20 inlet~;
#X obj 30 20 inlet~;
#X obj 109 140 *~;
#X obj 178 20 inlet~;
#X obj 177 102 +~;
#X obj 192 82 +~;
#X obj 207 62 local-lfo~ \$1 filter-resonance-LFO;
#X obj 192 41 envelope-in~ \$1 filter-resonance;
#X obj 109 51 logfreq~;
#X obj 203 196 outlet~;
#X connect 0 0 2 0;
#X connect 1 0 4 0;
#X connect 2 0 1 0;
#X connect 3 0 8 0;
#X connect 5 0 0 1;
#X connect 6 0 14 0;
#X connect 7 0 3 0;
#X connect 7 0 0 0;
#X connect 8 0 1 1;
#X connect 9 0 10 0;
#X connect 10 0 8 1;
#X connect 11 0 10 1;
#X connect 12 0 11 1;
#X connect 13 0 11 0;
#X connect 14 0 5 0;
#X connect 14 0 3 1;
#X connect 14 0 15 0;
