#N canvas 511 237 533 351 12;
#X obj 93 210 *~ \$2;
#X obj 256 217 *~ \$4;
#X obj 406 239 *~ \$6;
#X obj 23 24 inlet~ freq;
#X obj 210 164 square~;
#X obj 361 166 phasor~;
#X obj 21 129 *~ \$1;
#X obj 315 123 *~ \$5;
#X obj 178 125 *~ \$3;
#X obj 131 170 inlet;
#X obj 53 102 inlet;
#X obj 288 176 inlet;
#X obj 218 93 inlet;
#X obj 439 173 inlet;
#X obj 329 87 inlet;
#X obj 384 214 -~ 1;
#X obj 384 192 *~ 2;
#X obj 61 165 osc~;
#X obj 97 294 outlet~;
#X obj 249 305 outlet~;
#X obj 409 307 outlet~;
#X connect 0 0 18 0;
#X connect 1 0 19 0;
#X connect 2 0 20 0;
#X connect 3 0 7 0;
#X connect 3 0 6 0;
#X connect 3 0 8 0;
#X connect 4 0 1 0;
#X connect 5 0 16 0;
#X connect 6 0 17 0;
#X connect 7 0 5 0;
#X connect 8 0 4 0;
#X connect 9 0 0 1;
#X connect 10 0 6 1;
#X connect 11 0 1 1;
#X connect 12 0 8 1;
#X connect 13 0 2 1;
#X connect 14 0 7 1;
#X connect 15 0 2 0;
#X connect 16 0 15 0;
#X connect 17 0 0 0;
