#N canvas 1147 295 452 367 10;
#X obj 57 215 inlet~;
#X obj 106 16 inlet set-wave-shape;
#X obj 28 330 outlet~;
#X obj 57 250 tabosc4~ \$1;
#X obj 28 310 crossfade~;
#X obj 151 250 tabosc4~ \$1;
#X obj 106 95 f 0;
#X obj 106 117 + 1;
#X obj 106 137 % 2;
#X obj 28 215 f;
#X obj 106 183 sel 0 1;
#X obj 159 214 message;
#X obj 106 214 message;
#X obj 106 36 t b b a;
#X obj 14 80 loadbang;
#X msg 14 102 0;
#X text 212 79 \$1 = Inital wave-form to use.;
#X connect 0 0 3 0;
#X connect 0 0 5 0;
#X connect 1 0 13 0;
#X connect 3 0 4 1;
#X connect 4 0 2 0;
#X connect 5 0 4 2;
#X connect 6 0 7 0;
#X connect 7 0 8 0;
#X connect 8 0 6 1;
#X connect 8 0 9 1;
#X connect 8 0 10 0;
#X connect 9 0 4 0;
#X connect 10 0 12 0;
#X connect 10 1 11 0;
#X connect 11 0 5 0;
#X connect 12 0 3 0;
#X connect 13 0 9 0;
#X connect 13 1 6 0;
#X connect 13 2 11 1;
#X connect 13 2 12 1;
#X connect 14 0 15 0;
#X connect 15 0 4 0;
