#N canvas 162 273 1054 643 10;
#X declare -path ./pd/tools;
#X declare -path ./assets/samples/drumBeats;
#X declare -path ./pd/;
#X obj 42 104 * 2;
#X obj 98 283 osc~ 440;
#X obj 100 326 *~ 0.1;
#X obj 154 419 dac~;
#X obj 42 126 print lua-test-2;
#X obj 41 82 r lua-test-2-start;
#X obj 293 68 loadbang;
#X obj 293 90 metro 500;
#X obj 293 112 f 0;
#X obj 320 113 + 1;
#X obj 293 134 print lua-test-1;
#X obj 97 258 line~;
#X msg 97 220 880 \, 0 200;
#X obj 98 305 hip~ 40;
#X obj 90 177 r missile-fire;
#X obj 247 333 *~ 0.1;
#X obj 247 307 hip~ 40;
#X obj 241 178 r explosion;
#X obj 247 285 phasor~ 440;
#X msg 246 221 220 \, 880 400 \, 0 10 600;
#X obj 246 260 vline~;
#X obj 459 56 declare -path ./pd/tools;
#X obj 380 468 sample drumBeat01;
#X obj 468 87 declare -path ./assets/samples/drumBeats;
#X obj 454 15 declare -path ./pd/;
#X obj 413 302 sampler~ 101 drumBeat01;
#X msg 446 158 \; 101-play bang;
#X obj 386 337 *~ 0.1;
#X obj 519 334 *~ 0.1;
#X msg 441 198 \; 101-set-speed 1;
#X obj 545 395 sampler~ 2 beat2;
#X obj 630 450 sample beat2;
#X msg 714 201 \; drumBeat01-load-stereo-sample 0303.wav;
#X msg 676 271 \; beat2-load-stereo-sample 0101.wav;
#X msg 29 404 \; 2-play bang;
#X obj 593 121 metro 1000;
#X connect 0 0 4 0;
#X connect 1 0 13 0;
#X connect 2 0 3 0;
#X connect 2 0 3 1;
#X connect 5 0 0 0;
#X connect 6 0 7 0;
#X connect 6 0 33 0;
#X connect 6 0 32 0;
#X connect 8 0 9 0;
#X connect 8 0 10 0;
#X connect 9 0 8 1;
#X connect 11 0 1 0;
#X connect 12 0 11 0;
#X connect 13 0 2 0;
#X connect 14 0 12 0;
#X connect 14 0 34 0;
#X connect 15 0 3 0;
#X connect 15 0 3 1;
#X connect 16 0 15 0;
#X connect 17 0 19 0;
#X connect 17 0 26 0;
#X connect 18 0 16 0;
#X connect 19 0 20 0;
#X connect 20 0 18 0;
#X connect 25 0 27 0;
#X connect 25 1 28 0;
#X connect 27 0 3 0;
#X connect 28 0 3 1;
#X connect 30 0 27 0;
#X connect 30 1 28 0;
