#N canvas 1254 781 315 177 12;
#X obj 23 112 *~;
#X obj 23 137 outlet~;
#X obj 23 17 r \$1-set-\$2;
#X obj 72 43 r \$1-set-\$2-source;
#X obj 72 93 r~ default1;
#X obj 23 43 line~;
#X msg 72 68 set \$1-sig-out;
#X connect 0 0 1 0;
#X connect 2 0 5 0;
#X connect 3 0 6 0;
#X connect 4 0 0 1;
#X connect 5 0 0 0;
#X connect 6 0 4 0;
