#N canvas 1278 405 574 293 10;
#X obj 227 26 inlet~;
#X obj 56 72 r \$1-osc2-set-feedback;
#X obj 56 44 r \$1-osc1-set-feedback;
#X obj 57 99 r \$1-osc3-set-feedback;
#X obj 314 170 outlet~;
#X obj 400 169 outlet~;
#X obj 488 169 outlet~;
#X obj 227 121 fm-osc~ \$1 osc1;
#X obj 314 96 fm-osc~ \$1 osc2;
#X obj 401 75 fm-osc~ \$1 osc3;
#X connect 0 0 7 0;
#X connect 0 0 8 0;
#X connect 0 0 9 0;
#X connect 7 1 4 0;
#X connect 8 0 7 1;
#X connect 8 1 5 0;
#X connect 9 0 8 1;
#X connect 9 1 6 0;
