#N canvas 1294 228 327 479 10;
#X obj 7 -195 inlet~ base;
#X obj 23 -72 inlet~ modulation;
#X obj 7 -133 *~;
#X obj 15 -92 sig~;
#X obj 7 123 *~;
#X obj 7 257 outlet~;
#X obj 7 1 *~;
#X obj 22 83 sig~;
#X obj 22 103 lop~ 5;
#X obj 7 235 envelope~ \$1 0 0 1 0;
#X obj 22 -174 r \$1-\$2-set-ratio;
#X obj 15 -112 r \$1-\$2-set-detune;
#X obj 22 62 r \$1-\$2-set-amplitude;
#X obj 124 196 pack 0 0 0;
#X obj 186 153 swap 1;
#X obj 186 174 -;
#X obj 124 153 ifswap 10;
#X obj 99 108 t b f f;
#X obj 149 133 f;
#X msg 124 215 \$1 \$2 \$3 10;
#X obj 164 109 r \$1-\$2-set-attack-time;
#X obj 99 87 r \$1-\$2-reverse-envelope;
#X obj 15 42 outlet~;
#X obj 22 -154 sig~ 1;
#X obj 23 -50 +~ 1;
#X obj 88 1 r \$1-\$2-set-wave-shape;
#X obj 7 21 wave-osc~ sine;
#X connect 0 0 2 0;
#X connect 1 0 24 0;
#X connect 2 0 6 0;
#X connect 3 0 6 0;
#X connect 4 0 9 0;
#X connect 6 0 26 0;
#X connect 7 0 8 0;
#X connect 8 0 4 1;
#X connect 9 0 5 0;
#X connect 10 0 23 0;
#X connect 11 0 3 0;
#X connect 12 0 7 0;
#X connect 13 0 19 0;
#X connect 14 0 15 0;
#X connect 14 1 15 1;
#X connect 15 0 13 2;
#X connect 16 0 13 0;
#X connect 16 1 13 1;
#X connect 17 0 18 0;
#X connect 17 1 16 0;
#X connect 17 2 14 0;
#X connect 18 0 16 1;
#X connect 19 0 9 1;
#X connect 20 0 18 1;
#X connect 21 0 17 0;
#X connect 23 0 2 1;
#X connect 24 0 6 1;
#X connect 25 0 26 1;
#X connect 26 0 4 0;
#X connect 26 0 22 0;
#X coords 0 479 1 478 277 38 0;
