#N canvas 588 251 353 425 12;
#X obj 129 345 *~;
#X obj 21 347 *~;
#X obj 21 205 *~;
#X obj 129 371 outlet~;
#X obj 16 381 outlet~;
#X obj 20 7 inlet~ sig;
#X obj 149 126 lop~ 10;
#X obj 56 114 lop~ 10;
#X obj 149 103 sig~ \$2;
#X obj 56 86 sig~ \$1;
#X obj 254 41 inlet pan;
#X obj 111 41 inlet gain;
#X obj 149 208 cos~;
#X obj 149 151 *~ 0.25;
#X obj 149 176 -~ 0.25;
#X obj 38 288 -~ 0.25;
#X obj 38 313 cos~;
#X connect 0 0 3 0;
#X connect 1 0 4 0;
#X connect 2 0 1 0;
#X connect 2 0 0 0;
#X connect 5 0 2 0;
#X connect 6 0 13 0;
#X connect 7 0 2 1;
#X connect 8 0 6 0;
#X connect 9 0 7 0;
#X connect 10 0 8 0;
#X connect 11 0 9 0;
#X connect 12 0 0 1;
#X connect 13 0 14 0;
#X connect 14 0 15 0;
#X connect 14 0 12 0;
#X connect 15 0 16 0;
#X connect 16 0 1 1;
