#N canvas -863 388 511 392 10;
#X obj 84 28 inlet if;
#X obj 225 30 inlet float;
#X obj 313 33 inlet float;
#X obj 159 361 outlet float;
#X obj 385 358 outlet float;
#X msg 227 290 \$1 \$2;
#X msg 313 284 \$2 \$1;
#X obj 266 321 unpack 0 0;
#X obj 266 123 pack 0 0;
#X obj 304 67 t b f;
#X obj 219 251 spigot;
#X obj 322 252 spigot;
#X msg 282 225 0;
#X msg 246 226 1;
#X obj 247 203 sel 0;
#X obj 168 89 t b f;
#X obj 160 52 0;
#X obj 152 25 loadbang;
#X obj 319 95 f \$1;
#X obj 251 62 t f b;
#X connect 0 0 15 0;
#X connect 1 0 19 0;
#X connect 2 0 9 0;
#X connect 5 0 7 0;
#X connect 6 0 7 0;
#X connect 7 0 3 0;
#X connect 7 1 4 0;
#X connect 8 0 11 0;
#X connect 8 0 10 0;
#X connect 9 0 8 0;
#X connect 9 1 18 0;
#X connect 10 0 5 0;
#X connect 11 0 6 0;
#X connect 12 0 10 1;
#X connect 13 0 10 1;
#X connect 14 0 13 0;
#X connect 14 1 12 0;
#X connect 15 1 14 0;
#X connect 15 1 11 1;
#X connect 16 0 15 0;
#X connect 17 0 16 0;
#X connect 18 0 8 1;
#X connect 19 0 8 0;
#X connect 19 1 18 0;
