#N canvas 93 126 297 156 12;
#X obj 18 37 * 0.5;
#X obj 18 62 +;
#X obj 18 87 f;
#X obj 76 88 * 0.5;
#X obj 18 13 inlet;
#X obj 18 112 outlet;
#X connect 0 0 1 0;
#X connect 1 0 2 0;
#X connect 2 0 3 0;
#X connect 2 0 5 0;
#X connect 3 0 1 1;
#X connect 4 0 0 0;
