#N canvas 318 393 445 241 10;
#X obj 30 124 vclop~;
#X obj 30 177 +~;
#X obj 30 145 *~ 0.7;
#X obj 108 103 vcf~ 9.74;
#X obj 30 198 outlet~;
#X obj 63 103 -~ 100;
#X obj 133 20 inlet~;
#X obj 30 20 inlet~;
#X obj 109 144 *~;
#X obj 176 104 inlet~;
#X connect 0 0 2 0;
#X connect 1 0 4 0;
#X connect 2 0 1 0;
#X connect 3 0 8 0;
#X connect 5 0 0 1;
#X connect 6 0 3 1;
#X connect 6 0 5 0;
#X connect 7 0 3 0;
#X connect 7 0 0 0;
#X connect 8 0 1 1;
#X connect 9 0 8 1;
