#N canvas 1103 496 458 287 12;
#X obj 49 79 route bang;
#X obj 181 242 outlet;
#X obj 49 9 inlet hot;
#X msg 179 162 set \$1;
#X obj 176 137 argnumber2 set;
#X obj 120 109 t b a;
#X obj 253 42 inlet cold;
#X msg 181 195;
#X obj 264 82 route reset;
#X msg 324 155 set;
#X connect 0 0 7 0;
#X connect 0 1 5 0;
#X connect 2 0 0 0;
#X connect 3 0 7 0;
#X connect 4 0 3 0;
#X connect 5 0 7 0;
#X connect 5 1 4 0;
#X connect 6 0 8 0;
#X connect 7 0 1 0;
#X connect 8 0 9 0;
#X connect 8 1 4 0;
#X connect 9 0 7 0;
