#N canvas 150 111 816 507 10;
#X obj 655 17 cnv 15 140 260 empty empty AMP_FADING 20 12 0 14 -261682
-66577 0;
#X obj 327 16 cnv 15 320 300 empty empty PHASOR_SCALE 20 12 0 14 -204786
-66577 0;
#X obj 158 15 cnv 15 160 260 empty empty PHASOR_FREQ 20 12 0 14 -261234
-66577 0;
#X obj 561 202 - 2;
#X obj -4 18 r \$1-play;
#X obj 225 48 r \$1-set-speed;
#X obj 540 223 *~ 1;
#X obj 540 136 phasor~ 0;
#X obj 237 134 / 44100;
#X obj 237 156 swap 1;
#X obj 237 178 /;
#X obj 225 223 *;
#X obj 237 199 t b f;
#X msg 15 110 0;
#X obj 665 112 0;
#X obj 729 276 line~;
#X obj 705 44 r \$1-stop;
#X obj 705 66 t b b;
#X obj 742 164 loadbang;
#X msg 225 69 \$1 \$2;
#X obj 171 170 loadbang;
#X msg 171 190 1;
#X obj 386 233 samphold~;
#X obj 525 265 *~;
#X obj 339 196 sig~ 0;
#X msg 386 144 set 1;
#X obj 386 123 delay 2;
#X obj 540 245 +~ 1;
#X obj 459 111 sel 1;
#X obj 497 111 sel 1;
#X obj 459 90 < 0;
#X obj 497 90 > 0;
#X obj 476 189 *~ -1;
#X obj 476 210 +~ 1;
#X obj 459 64 unpack 0 0;
#X msg 459 132 1;
#X msg 497 132 0;
#X obj 437 167 spigot~;
#X obj 665 133 s \$0-freq;
#X obj 540 94 r \$0-freq;
#X obj 225 243 s \$0-freq;
#X obj 665 160 r \$0-start;
#X obj -4 156 s \$0-start;
#X obj 386 101 r \$0-start;
#X obj -4 40 t b b b;
#X obj 15 131 s \$0-phase;
#X obj 459 43 r \$1-set-speed;
#X obj 237 112 r \$0-length;
#X obj 561 182 r \$0-length;
#X obj 35 86 s \$0-length;
#X obj 576 114 r \$0-phase;
#X msg 732 187 0 50;
#X obj 665 91 delay 100;
#X msg 665 180 1 10;
#X obj 225 90 line;
#X obj 35 64 v \$2-sample-length;
#X obj 506 406 *~;
#X obj 503 457 outlet~;
#X obj 603 457 outlet~;
#X obj 612 417 *~;
#X obj 385 344 tabread4~ \$2-sample-L;
#X obj 587 375 tabread4~ \$2-sample-R;
#X connect 3 0 6 1;
#X connect 4 0 44 0;
#X connect 5 0 19 0;
#X connect 6 0 27 0;
#X connect 7 0 6 0;
#X connect 7 0 37 0;
#X connect 8 0 9 0;
#X connect 9 0 10 0;
#X connect 9 1 10 1;
#X connect 10 0 12 0;
#X connect 11 0 40 0;
#X connect 12 0 11 0;
#X connect 12 1 11 1;
#X connect 13 0 45 0;
#X connect 14 0 38 0;
#X connect 15 0 56 1;
#X connect 15 0 59 1;
#X connect 16 0 17 0;
#X connect 17 0 52 0;
#X connect 17 1 51 0;
#X connect 18 0 51 0;
#X connect 19 0 54 0;
#X connect 20 0 21 0;
#X connect 21 0 11 0;
#X connect 22 0 23 0;
#X connect 23 0 60 0;
#X connect 23 0 61 0;
#X connect 24 0 22 0;
#X connect 25 0 22 0;
#X connect 26 0 25 0;
#X connect 27 0 23 1;
#X connect 28 0 35 0;
#X connect 29 0 36 0;
#X connect 30 0 28 0;
#X connect 31 0 29 0;
#X connect 32 0 33 0;
#X connect 33 0 22 1;
#X connect 34 0 30 0;
#X connect 34 0 31 0;
#X connect 35 0 37 1;
#X connect 36 0 37 1;
#X connect 37 0 22 1;
#X connect 37 1 32 0;
#X connect 39 0 7 0;
#X connect 41 0 53 0;
#X connect 43 0 26 0;
#X connect 44 0 42 0;
#X connect 44 1 13 0;
#X connect 44 2 55 0;
#X connect 46 0 34 0;
#X connect 47 0 8 0;
#X connect 48 0 3 0;
#X connect 50 0 7 1;
#X connect 51 0 15 0;
#X connect 52 0 14 0;
#X connect 53 0 15 0;
#X connect 54 0 11 0;
#X connect 55 0 49 0;
#X connect 56 0 57 0;
#X connect 59 0 58 0;
#X connect 60 0 56 0;
#X connect 61 0 59 0;
