#N canvas 790 238 696 535 12;
#X obj 23 22 inlet;
#X obj 33 53 select 1 2 3 4;
#X obj 72 216 0;
#X obj 107 218 0;
#X obj 70 176 0;
#X obj 138 181 0;
#X obj 105 131 0;
#X obj 138 134 0;
#X obj 35 97 1;
#X obj 71 96 0;
#X obj 106 98 0;
#X obj 139 101 0;
#X obj 36 217 0;
#X obj 140 222 1;
#X obj 105 178 1;
#X obj 34 177 0;
#X obj 34 130 0;
#X obj 70 129 1;
#X msg 224 92 0;
#X msg 262 92 0;
#X msg 302 94 0;
#X msg 190 93 0;
#X obj 304 340 inlet~;
#X obj 94 459 outlet~;
#X obj 230 460 outlet~;
#X obj 395 461 outlet~;
#X obj 549 462 outlet~;
#X obj 86 408 *~ 1;
#X obj 220 409 *~ 0;
#X obj 388 411 *~ 0;
#X obj 540 412 *~ 0;
#X connect 0 0 1 0;
#X connect 1 0 8 0;
#X connect 1 0 9 0;
#X connect 1 0 10 0;
#X connect 1 0 11 0;
#X connect 1 1 16 0;
#X connect 1 1 17 0;
#X connect 1 1 6 0;
#X connect 1 1 7 0;
#X connect 1 2 15 0;
#X connect 1 2 4 0;
#X connect 1 2 14 0;
#X connect 1 2 5 0;
#X connect 1 3 12 0;
#X connect 1 3 2 0;
#X connect 1 3 3 0;
#X connect 1 3 13 0;
#X connect 1 4 21 0;
#X connect 1 4 18 0;
#X connect 1 4 19 0;
#X connect 1 4 20 0;
#X connect 2 0 28 1;
#X connect 3 0 29 1;
#X connect 4 0 28 1;
#X connect 5 0 30 1;
#X connect 6 0 29 1;
#X connect 7 0 30 1;
#X connect 8 0 27 1;
#X connect 9 0 28 1;
#X connect 10 0 29 1;
#X connect 11 0 30 1;
#X connect 12 0 27 1;
#X connect 13 0 30 1;
#X connect 14 0 29 1;
#X connect 15 0 27 1;
#X connect 16 0 27 1;
#X connect 17 0 28 1;
#X connect 18 0 28 1;
#X connect 19 0 29 1;
#X connect 20 0 30 1;
#X connect 21 0 27 1;
#X connect 22 0 27 0;
#X connect 22 0 28 0;
#X connect 22 0 29 0;
#X connect 22 0 30 0;
#X connect 27 0 23 0;
#X connect 28 0 24 0;
#X connect 29 0 25 0;
#X connect 30 0 26 0;
