#N canvas 141 532 1089 395 10;
#X obj 17 21 r \$1-add-beat-message;
#X obj 17 42 list split 1;
#X obj 17 63 f 1;
#X msg 17 105 list \$1;
#X obj 30 126 list;
#X obj 30 146 argnumber;
#X msg 30 200 \; \$1 \$2 \$3 \$4 \$5 \$6 \$7 \$8;
#X obj 17 84 makefilename \$1-beat-%d-add;
#X obj 200 21 r \$1-clear-beat-message;
#X msg 236 85 \; \$1 bang;
#X obj 236 65 makefilename \$1-beat-%d-clear;
#X obj 428 19 r \$1-flush-beat-message;
#X msg 468 88 \; \$1 bang;
#X obj 468 67 makefilename \$1-beat-%d-flush;
#X floatatom 553 100 5 0 0 0 - - -;
#X obj 428 122 s \$1-beat-all-flush;
#X msg 428 65 bang;
#X msg 200 65 bang;
#X obj 200 119 s \$1-beat-all-clear;
#X floatatom 295 89 5 0 0 0 - - -;
#X obj 428 41 select all;
#X obj 200 43 select all;
#X obj 664 15 r \$1-set-note-sequence;
#X obj 703 95 list split 1;
#X obj 704 197 makefilename %s-set-midi-note-offset;
#X obj 664 95 until;
#X obj 664 149 list append;
#X obj 664 171 list split 1;
#X msg 748 171 bang;
#X obj 664 221 list prepend;
#X obj 664 37 t b b l;
#X obj 758 241 + 1;
#X obj 664 117 t b b;
#X obj 664 262 list prepend;
#X obj 733 241 f 1;
#X msg 786 171 1;
#X obj 664 283 s \$1-add-beat-message;
#X obj 967 151 list length;
#X floatatom 930 172 5 0 0 0 - - -;
#X obj 967 173 swap 16;
#X obj 967 195 /;
#X obj 967 217 int;
#X obj 252 232 sel 0;
#X msg 295 294 1;
#X msg 324 294 0;
#X obj 295 274 outlet;
#X obj 279 339 outlet;
#X obj 297 191 r \$1-use-node-activation;
#X obj 150 171 synth-signal-monitor \$1 \$2;
#X obj 252 254 t b b;
#X text 717 33 This method expects the synth-componentID \, and then
a list of note offsets \, which will then get sent to the sequencer
to be triggered on sequential beats \, spaced out evenly over a bar
according to how many notes there are in the list.;
#X obj 252 211 spigot 0;
#X obj 279 318 spigot 0;
#X text 402 307 \$1 = ComponentID;
#X text 402 322 \$2 = ComponentID of the network the parent-component
is connected to.;
#X connect 0 0 1 0;
#X connect 1 0 2 0;
#X connect 1 1 4 1;
#X connect 2 0 7 0;
#X connect 3 0 4 0;
#X connect 4 0 5 0;
#X connect 5 0 6 0;
#X connect 7 0 3 0;
#X connect 8 0 21 0;
#X connect 10 0 9 0;
#X connect 11 0 20 0;
#X connect 13 0 12 0;
#X connect 16 0 15 0;
#X connect 17 0 18 0;
#X connect 20 0 16 0;
#X connect 20 1 13 0;
#X connect 20 1 14 0;
#X connect 21 0 17 0;
#X connect 21 1 10 0;
#X connect 21 1 19 0;
#X connect 22 0 30 0;
#X connect 23 0 24 0;
#X connect 23 1 26 1;
#X connect 23 1 37 0;
#X connect 24 0 29 1;
#X connect 25 0 32 0;
#X connect 26 0 27 0;
#X connect 27 0 29 0;
#X connect 27 1 26 1;
#X connect 27 2 28 0;
#X connect 28 0 25 1;
#X connect 29 0 33 0;
#X connect 30 0 25 0;
#X connect 30 1 35 0;
#X connect 30 2 23 0;
#X connect 31 0 34 1;
#X connect 32 0 26 0;
#X connect 32 1 34 0;
#X connect 33 0 36 0;
#X connect 34 0 31 0;
#X connect 34 0 33 1;
#X connect 35 0 34 1;
#X connect 37 0 38 0;
#X connect 37 0 39 0;
#X connect 39 0 40 0;
#X connect 39 1 40 1;
#X connect 40 0 41 0;
#X connect 41 0 31 1;
#X connect 42 0 49 0;
#X connect 42 1 52 0;
#X connect 43 0 52 1;
#X connect 44 0 52 1;
#X connect 47 0 51 1;
#X connect 48 2 51 0;
#X connect 49 0 43 0;
#X connect 49 1 45 0;
#X connect 51 0 42 0;
#X connect 52 0 46 0;
#X connect 52 0 44 0;
