#N canvas 608 205 578 525 12;
#X obj 43 322 +~;
#X obj 90 266 osc~;
#X obj 44 349 tri~;
#X obj 90 289 *~ 20;
#X obj 90 243 *~ 0.25;
#X obj 27 70 poly 1 1;
#X obj 26 193 sig~ 440;
#X obj 26 110 mtof;
#X obj 26 169 line;
#X msg 289 277 0;
#X obj 264 239 r \$1-stop;
#X obj 244 213 r \$1-play;
#X obj 90 12 r \$1-set-midi-note;
#N canvas 768 107 474 393 midi-in 0;
#X obj -99 100 unpack 0 0 0;
#X obj -119 284 outlet note;
#X obj -7 312 outlet time;
#X obj 121 317 outlet envBang;
#X obj 9 164 sel 1;
#X obj 9 139 == 1;
#X obj -99 2 inlet;
#X obj 105 221 delay;
#X obj 31 61 unpack 0 0 0;
#X obj -99 27 t a a;
#X obj 30 245 bng 15 250 50 0 empty empty empty 17 7 0 10 -262144 -1
-1;
#X msg -33 -2 list 63 1000 1;
#X msg -99 77 \$1 \$2 \$3;
#X connect 0 0 1 0;
#X connect 0 1 2 0;
#X connect 0 2 5 0;
#X connect 4 0 7 0;
#X connect 5 0 4 0;
#X connect 6 0 9 0;
#X connect 7 0 10 0;
#X connect 7 0 3 0;
#X connect 8 1 7 1;
#X connect 9 0 12 0;
#X connect 9 1 8 0;
#X connect 11 0 9 0;
#X connect 12 0 0 0;
#X restore 91 39 pd midi-in;
#X obj 35 466 positionPanner \$1 \$2;
#X obj 45 422 *~;
#X obj 204 340 line~;
#X msg 230 266 1;
#X connect 0 0 2 0;
#X connect 1 0 3 0;
#X connect 2 0 15 0;
#X connect 3 0 0 1;
#X connect 4 0 1 0;
#X connect 5 1 7 0;
#X connect 5 2 8 1;
#X connect 6 0 4 0;
#X connect 6 0 0 0;
#X connect 7 0 8 0;
#X connect 8 0 6 0;
#X connect 9 0 16 0;
#X connect 10 0 9 0;
#X connect 11 0 17 0;
#X connect 12 0 13 0;
#X connect 13 0 5 0;
#X connect 13 1 5 1;
#X connect 13 2 17 0;
#X connect 15 0 14 0;
#X connect 16 0 15 1;
#X connect 17 0 16 0;
