#N canvas 794 524 315 247 10;
#X obj 14 24 inlet~ sig;
#X obj 168 14 inlet toggle;
#X obj 97 214 outlet~ sig1;
#X obj 136 191 outlet~ sig2;
#X obj 165 40 select 0;
#X msg 245 74 1 50;
#X msg 208 74 0 50;
#X msg 147 75 0 50;
#X msg 113 76 1 50;
#X obj 180 149 line~;
#X obj 119 130 line~;
#X obj 97 169 *~;
#X obj 136 170 *~;
#X obj 96 29 loadbang;
#X connect 0 0 11 0;
#X connect 0 0 12 0;
#X connect 1 0 4 0;
#X connect 4 0 8 0;
#X connect 4 0 7 0;
#X connect 4 1 5 0;
#X connect 4 1 6 0;
#X connect 5 0 9 0;
#X connect 6 0 10 0;
#X connect 7 0 9 0;
#X connect 8 0 10 0;
#X connect 9 0 12 1;
#X connect 10 0 11 1;
#X connect 11 0 2 0;
#X connect 12 0 3 0;
#X connect 13 0 8 0;
#X connect 13 0 7 0;
