#N canvas 1164 670 718 270 10;
#X obj 117 160 + 1;
#X obj 13 181 tabread \$2-table;
#X obj 117 181 tabread \$2-table;
#X obj 227 181 tabread \$2-table;
#X obj 331 181 tabread \$2-table;
#X obj 227 160 + 2;
#X obj 96 13 r \$1-set-node;
#X obj 96 57 * 4;
#X obj 331 160 + 3;
#X msg 13 35 bang;
#X obj 13 13 r \$2-changed;
#X obj 13 202 outlet midi-note;
#X obj 117 202 outlet wave-shape;
#X obj 227 202 outlet amplitude;
#X obj 331 202 outlet distortion;
#X text 293 9 \$1 = Component ID;
#X text 293 24 \$2 = Component ID of the synth-node-network;
#X obj 13 112 t f f f f;
#X obj 96 35 f -1;
#X obj 13 92 f -1;
#X connect 0 0 2 0;
#X connect 1 0 11 0;
#X connect 2 0 12 0;
#X connect 3 0 13 0;
#X connect 4 0 14 0;
#X connect 5 0 3 0;
#X connect 6 0 18 0;
#X connect 7 0 19 0;
#X connect 8 0 4 0;
#X connect 9 0 19 0;
#X connect 10 0 9 0;
#X connect 17 0 1 0;
#X connect 17 1 0 0;
#X connect 17 2 5 0;
#X connect 17 3 8 0;
#X connect 18 0 7 0;
#X connect 19 0 17 0;
