#N canvas 274 282 644 473 12;
#X obj 103 123 *~ 2;
#X obj 105 150 -~ 1;
#X obj 156 213 clip~ -1 1;
#X obj 109 250 *~;
#X obj 109 275 -~ 0.5;
#X obj 109 300 outlet~;
#X obj 72 4 inlet~;
#X obj 221 0 inlet phase;
#X obj 100 95 phasor~;
#X obj 151 186 *~ 100000;
#X connect 0 0 1 0;
#X connect 1 0 3 0;
#X connect 1 0 9 0;
#X connect 2 0 3 1;
#X connect 3 0 4 0;
#X connect 4 0 5 0;
#X connect 6 0 8 0;
#X connect 7 0 8 1;
#X connect 8 0 0 0;
#X connect 9 0 2 0;
