#N canvas 68 379 297 316 10;
#X obj 38 34 inlet~;
#X obj 124 34 inlet~;
#X obj 38 253 rpole~;
#X obj 195 57 samplerate~;
#X obj 195 79 swap 1;
#X obj 195 102 /;
#X obj 195 34 loadbang;
#X obj 124 119 *~ 0;
#X obj 71 119 sig~ 1;
#X obj 71 180 -~;
#X obj 38 227 *~;
#X obj 38 278 outlet~;
#X obj 124 143 max~ 0;
#X obj 124 164 min~ 1;
#X obj 124 79 *~ 6.28318;
#X connect 0 0 10 0;
#X connect 1 0 14 0;
#X connect 2 0 11 0;
#X connect 3 0 4 0;
#X connect 4 0 5 0;
#X connect 4 1 5 1;
#X connect 5 0 7 1;
#X connect 6 0 3 0;
#X connect 7 0 12 0;
#X connect 8 0 9 0;
#X connect 9 0 2 1;
#X connect 10 0 2 0;
#X connect 12 0 13 0;
#X connect 13 0 9 1;
#X connect 13 0 10 1;
#X connect 14 0 7 0;
