#N canvas 1052 428 518 434 10;
#N canvas 0 22 450 300 (subpatch) 0;
#X array \$1-sample-L 16283 float 2;
#X coords 0 1 16283 -1 200 140 1;
#X restore 20 23 graph;
#N canvas 0 22 450 300 (subpatch) 0;
#X array \$1-sample-R 64 float 2;
#X coords 0 1 64 -1 200 140 1;
#X restore 260 23 graph;
#X obj 260 297 soundfiler;
#X obj 260 319 v \$1-sample-length;
#X obj 260 252 list prepend;
#X obj 329 229 symbol \$1;
#X obj 329 207 loadbang;
#X msg 260 275 read -resize \$2 \$1-sample-L \$1-sample-R;
#X obj 152 208 r \$1-shut-off;
#X obj 28 374 soundfiler;
#X obj 28 396 v \$1-sample-length;
#X obj 28 329 list prepend;
#X obj 97 308 symbol \$1;
#X obj 97 287 loadbang;
#X obj 28 177 r \$1-load-mono-sample;
#X obj 260 187 r \$1-load-stereo-sample;
#X msg 28 352 read -resize \$2 \$1-sample-L;
#X msg 55 239 \; \$1-sample-R resize 64 \; \$1-sample-R const 0;
#X obj 55 219 symbol \$1;
#X obj 28 199 t a b;
#X obj 260 342 r \$1-normalize-sample;
#X obj 260 404 s \$1-sample-L;
#X msg 260 362 normalize;
#X obj 268 383 s \$1-sample-R;
#X text 397 248 \$1 = ComponentID;
#X connect 2 0 3 0;
#X connect 4 0 7 0;
#X connect 5 0 4 1;
#X connect 6 0 5 0;
#X connect 7 0 2 0;
#X connect 9 0 10 0;
#X connect 11 0 16 0;
#X connect 12 0 11 1;
#X connect 13 0 12 0;
#X connect 14 0 19 0;
#X connect 15 0 4 0;
#X connect 16 0 9 0;
#X connect 18 0 17 0;
#X connect 19 0 11 0;
#X connect 19 1 18 0;
#X connect 20 0 22 0;
#X connect 22 0 21 0;
#X connect 22 0 23 0;
