#N canvas 376 107 506 373 10;
#X obj 144 194 osc~ 20;
#X obj 124 253 +~;
#X obj 124 94 sig~;
#X obj 144 227 *~ 0;
#X obj 124 70 line;
#X obj 144 170 line;
#X obj 227 194 line;
#X obj 125 120 envelope~ \$1 0 0 1 0;
#X obj 124 46 r \$1-set-value;
#X obj 230 81 r \$1-set-envelope;
#X obj 144 147 r \$1-set-LFO-frequency;
#X obj 227 171 r \$1-set-LFO-gain;
#X obj 125 302 s~ \$1-sig-out;
#X connect 0 0 3 0;
#X connect 1 0 12 0;
#X connect 2 0 7 0;
#X connect 3 0 1 1;
#X connect 4 0 2 0;
#X connect 5 0 0 0;
#X connect 6 0 3 1;
#X connect 7 0 1 0;
#X connect 8 0 4 0;
#X connect 9 0 7 1;
#X connect 10 0 5 0;
#X connect 11 0 6 0;
