#N canvas 222 332 494 384 12;
#X obj 65 144 envelope~ 0 0 1 0;
#X obj 85 219 osc~ 20;
#X obj 65 278 +~;
#X obj 85 252 *~ 0;
#X obj 65 95 line;
#X obj 85 195 line;
#X obj 168 219 line;
#X obj 65 71 r \$1-set-\$2;
#X obj 150 118 r \$1-set-\$2-envelope;
#X obj 85 172 r \$1-set-\$2-LFO-frequency;
#X obj 168 195 r \$1-set-\$2-LFO-gain;
#X obj 66 327 outlet~;
#X obj 12 29 inlet;
#X text 62 27 <- Only for when you need to manually set the sig~ to
something.;
#X obj 124 94 inlet vel;
#X obj 65 119 osc~;
#X connect 0 0 2 0;
#X connect 1 0 3 0;
#X connect 2 0 11 0;
#X connect 3 0 2 1;
#X connect 4 0 15 0;
#X connect 5 0 1 0;
#X connect 6 0 3 1;
#X connect 7 0 4 0;
#X connect 8 0 0 2;
#X connect 9 0 5 0;
#X connect 10 0 6 0;
#X connect 12 0 15 0;
#X connect 14 0 0 1;
#X connect 15 0 0 0;
