#N canvas 1428 405 434 386 10;
#X obj 89 -36 vline~;
#X obj 13 -40 inlet~ sig;
#X obj 14 11 outlet~;
#X obj 14 -12 *~;
#X obj 62 -258 sel 0;
#X obj 89 -197 t b b b;
#X obj 179 -242 inlet;
#X obj 179 -220 unpack 0 0 0 0;
#X msg 245 -68 0 \$1;
#X obj 62 -280 r \$1-vel;
#X obj 29 -197 bng 15 250 50 0 empty empty empty 17 7 0 10 -262144
-1 -1;
#X obj 89 -103 pack 0 0 0 0;
#X obj 89 -138 t f f;
#X msg 89 -68 0 10 \, 1 \$1 10 \, \$3 \$2 \$4;
#X obj 169 -126 + 10;
#X obj 245 -159 f \$5;
#X obj 159 -160 f \$4;
#X obj 124 -159 f \$3;
#X obj 89 -160 f \$2;
#X connect 0 0 3 1;
#X connect 1 0 3 0;
#X connect 3 0 2 0;
#X connect 4 0 15 0;
#X connect 4 1 5 0;
#X connect 5 0 18 0;
#X connect 5 1 17 0;
#X connect 5 2 16 0;
#X connect 6 0 7 0;
#X connect 7 0 18 1;
#X connect 7 1 17 1;
#X connect 7 2 16 1;
#X connect 7 3 15 1;
#X connect 8 0 0 0;
#X connect 9 0 4 0;
#X connect 9 0 10 0;
#X connect 11 0 13 0;
#X connect 12 0 11 0;
#X connect 12 1 14 0;
#X connect 13 0 0 0;
#X connect 14 0 11 3;
#X connect 15 0 8 0;
#X connect 16 0 11 2;
#X connect 17 0 11 1;
#X connect 18 0 12 0;
#X coords 0 386 1 385 220 180 0;
