#N canvas 730 161 450 300 12;
#X obj 247 42 loadbang;
#X msg 247 67 1;
#X obj 247 135 snapshot~;
#X floatatom 105 104 8 0 0 0 - #0-r-f #0-s-f;
#X obj 179 50 inlet~;
#X obj 306 228 s \$0-r-f;
#X obj 247 228 outlet;
#X obj 247 92 metro 100;
#X obj 247 179 line 100;
#X connect 0 0 1 0;
#X connect 1 0 7 0;
#X connect 2 0 8 0;
#X connect 4 0 2 0;
#X connect 7 0 2 0;
#X connect 8 0 6 0;
#X connect 8 0 5 0;
#X coords 0 -1 1 1 75 24 2 100 100;
