#N canvas 399 426 629 501 12;
#X obj 189 307 *~;
#X obj 81 309 *~;
#X obj 205 287 sqrt~;
#X obj 95 246 sig~ 1;
#X obj 96 267 -~;
#X obj 96 288 sqrt~;
#X obj 81 225 *~;
#X obj 189 333 outlet~;
#X obj 76 343 outlet~;
#X obj 81 158 inlet~ sig;
#X obj 193 204 lop~ 10;
#X obj 344 262 lop~ 10;
#X obj 209 104 sig~ \$2;
#X obj 342 210 sig~ \$1;
#X connect 0 0 7 0;
#X connect 1 0 8 0;
#X connect 2 0 0 1;
#X connect 3 0 4 0;
#X connect 4 0 5 0;
#X connect 5 0 1 1;
#X connect 6 0 1 0;
#X connect 6 0 0 0;
#X connect 9 0 6 0;
#X connect 10 0 2 0;
#X connect 10 0 4 1;
#X connect 11 0 6 1;
#X connect 12 0 10 0;
#X connect 13 0 11 0;
