#N canvas 653 370 450 300 10;
#X obj 90 119 *~;
#X obj 120 75 r \$1-set-\$2-gain;
#X obj 90 141 outlet~;
#X obj 120 97 line~;
#X obj 90 6 r~ \$1-local-LFO;
#X obj 113 25 r \$1-set-\$2-dc-offset;
#X obj 113 47 line~;
#X obj 91 70 +~;
#X connect 0 0 2 0;
#X connect 1 0 3 0;
#X connect 3 0 0 1;
#X connect 4 0 7 0;
#X connect 5 0 6 0;
#X connect 6 0 7 1;
#X connect 7 0 0 0;
