#N canvas 341 435 450 300 10;
#X obj 32 27 inlet~;
#X obj 32 70 exp~;
#X obj 32 154 outlet~;
#X obj 32 49 /~ 22050.5;
#X obj 32 111 *~ 22050.5;
#X obj 32 91 -~ 1;
#X obj 32 132 *~ 0.6;
#X connect 0 0 3 0;
#X connect 1 0 5 0;
#X connect 3 0 1 0;
#X connect 4 0 6 0;
#X connect 5 0 4 0;
#X connect 6 0 2 0;
