#N canvas 49 151 512 537 10;
#X obj 153 451 *~;
#X obj 45 453 *~;
#X obj 22 75 hsl 128 15 0 1 0 0 \$0-pan-s \$0-pan-r empty -2 -8 0 10
-262144 -1 -1 6350 1;
#X obj 158 325 sig~;
#X obj 169 431 sqrt~;
#X obj 59 390 sig~ 1;
#X obj 60 411 -~;
#X obj 60 432 sqrt~;
#X text 75 58 Pan;
#X text 35 59 L;
#X text 125 58 R;
#X obj 45 369 *~;
#X obj 362 388 sig~;
#X obj 22 37 hsl 128 15 0.01 2 1 0 \$0-gain-s \$0-gain-r empty -2 -8
0 10 -262144 -1 -1 4559 1;
#X text 71 19 Gain;
#X obj 153 477 outlet~;
#X obj 43 475 outlet~;
#X msg 337 363 0;
#X obj 177 22 inlet gain;
#X obj 277 19 inlet pan;
#X obj 41 96 bng 15 250 50 0 \$0-center-button-s \$0-center-button-r
empty 17 7 0 10 -262144 -1 -1;
#X text 59 95 <- Center Pan;
#X obj 221 148 f 0.5;
#X obj 45 302 inlet~ sig;
#X obj 157 348 lop~ 10;
#X obj 346 338 moses 0.04;
#X obj 363 408 lop~ 10;
#X obj 277 41 clip 0.1 0.9;
#X obj 177 44 clip 0 0.8;
#X obj 121 167 r \$0-pan-s;
#X obj 189 325 s \$0-pan-r;
#X floatatom 121 191 5 0 0 0 - - -;
#X msg 121 212 set \$1;
#X msg 158 288 0.5;
#X obj 121 236 t b a;
#X obj 89 260 delay 10;
#X floatatom 308 217 5 0 0 0 - - -;
#X msg 308 238 set \$1;
#X msg 345 314 0.0669908;
#X obj 308 262 t b a;
#X obj 276 287 delay 10;
#X obj 308 193 r \$0-gain-s;
#X obj 426 337 s \$0-gain-r;
#X obj 166 261 loadbang;
#X obj 354 286 loadbang;
#X obj 277 63 s \$0-pan-r;
#X obj 177 67 s \$0-gain-r;
#X obj 220 117 r \$0-center-button-s;
#X obj 221 170 s \$0-pan-r;
#X connect 0 0 15 0;
#X connect 1 0 16 0;
#X connect 3 0 24 0;
#X connect 4 0 0 1;
#X connect 5 0 6 0;
#X connect 6 0 7 0;
#X connect 7 0 1 1;
#X connect 11 0 1 0;
#X connect 11 0 0 0;
#X connect 12 0 26 0;
#X connect 17 0 12 0;
#X connect 18 0 28 0;
#X connect 19 0 27 0;
#X connect 22 0 48 0;
#X connect 23 0 11 0;
#X connect 24 0 4 0;
#X connect 24 0 6 1;
#X connect 25 0 17 0;
#X connect 25 1 12 0;
#X connect 26 0 11 1;
#X connect 27 0 45 0;
#X connect 28 0 46 0;
#X connect 29 0 31 0;
#X connect 31 0 32 0;
#X connect 32 0 34 0;
#X connect 33 0 30 0;
#X connect 33 0 3 0;
#X connect 34 0 35 0;
#X connect 34 1 33 0;
#X connect 35 0 33 0;
#X connect 36 0 37 0;
#X connect 37 0 39 0;
#X connect 38 0 42 0;
#X connect 38 0 25 0;
#X connect 39 0 40 0;
#X connect 39 1 38 0;
#X connect 40 0 38 0;
#X connect 41 0 36 0;
#X connect 43 0 33 0;
#X connect 44 0 38 0;
#X connect 47 0 22 0;
#X coords 0 -1 1 1 150 110 1 10 10;
