#N canvas 225 273 286 245 10;
#X obj 128 179 *~;
#X obj 20 181 *~;
#X obj 128 201 outlet~;
#X obj 20 203 outlet~;
#X obj 20 14 inlet~ sig;
#X obj 129 15 inlet~ pan;
#X obj 34 115 -~ 0.25;
#X obj 128 100 cos~;
#X obj 129 56 *~ 0.25;
#X obj 129 78 -~ 0.25;
#X obj 129 35 lop~ 30;
#X obj 34 158 lop~ 15;
#X obj 133 121 lop~ 15;
#X obj 34 137 cos~;
#X connect 0 0 2 0;
#X connect 1 0 3 0;
#X connect 4 0 1 0;
#X connect 4 0 0 0;
#X connect 5 0 10 0;
#X connect 6 0 13 0;
#X connect 7 0 12 0;
#X connect 8 0 9 0;
#X connect 9 0 6 0;
#X connect 9 0 7 0;
#X connect 10 0 8 0;
#X connect 11 0 1 1;
#X connect 12 0 0 1;
#X connect 13 0 11 0;
#X coords 0 245 1 244 144 40 0;
