#N canvas 78 317 354 514 10;
#X obj 27 168 inlet~;
#X obj 30 474 outlet~;
#N canvas 0 22 450 300 (subpatch) 0;
#X array \$0-table 512 float 4;
#X coords 0 1 511 -1 200 140 1;
#X restore 100 115 graph;
#X obj 163 12 loadbang;
#X obj 74 445 tabwrite~ \$0-table;
#X obj 168 363 dac~;
#X obj 129 300 spigot~;
#X obj 101 101 cnv 10 198 13 empty empty empty 20 12 0 14 -228856 -66577
0;
#X obj 142 100 tgl 15 0 \$0-active \$0-active empty 17 7 0 10 -262144
-1 -1 1 1;
#X text 101 100 Active;
#X obj 55 302 r \$0-active;
#X obj 192 445 tabwrite~ \$0-table;
#X obj 192 414 sig~;
#X obj 168 261 r \$0-listen;
#X obj 253 100 tgl 15 0 \$0-listen \$0-listen empty 17 7 0 10 -262144
-1 -1 1 1;
#X text 212 100 Listen;
#X obj 91 58 s \$0-active;
#X obj 74 392 metro 87;
#X floatatom 186 101 4 0 0 0 - #0-rate-r #0-rate-s;
#X text 158 100 Rate;
#X floatatom 121 419 5 0 0 0 - - -;
#X obj 163 58 s \$0-rate-r;
#X obj 84 338 r \$0-rate-s;
#X obj 27 260 clip~ -1 1;
#X msg 91 38 1;
#X obj 148 398 sel 0;
#X floatatom 271 101 4 0.0001 1 0 - #0-gain-r #0-gain-s;
#X msg 163 38 87;
#X obj 237 58 s \$0-gain-r;
#X obj 249 276 r \$0-gain-s;
#X obj 249 295 logfreq 1;
#X msg 237 38 0.5;
#X obj 249 317 sig~;
#X obj 249 339 lop~ 5;
#X obj 168 338 *~;
#X connect 0 0 23 0;
#X connect 0 0 4 0;
#X connect 3 0 24 0;
#X connect 3 0 27 0;
#X connect 3 0 31 0;
#X connect 6 1 34 0;
#X connect 10 0 17 0;
#X connect 10 0 25 0;
#X connect 12 0 11 0;
#X connect 13 0 6 1;
#X connect 17 0 4 0;
#X connect 22 0 17 1;
#X connect 22 0 20 0;
#X connect 23 0 6 0;
#X connect 23 0 1 0;
#X connect 24 0 16 0;
#X connect 25 0 11 0;
#X connect 27 0 21 0;
#X connect 29 0 30 0;
#X connect 30 0 32 0;
#X connect 31 0 28 0;
#X connect 32 0 33 0;
#X connect 33 0 34 1;
#X connect 34 0 5 0;
#X connect 34 0 5 1;
#X coords 0 -1 1 1 200 155 2 100 100;
