#N canvas -381 365 337 344 10;
#X obj 38 64 inlet~;
#X obj 94 64 inlet~;
#X obj 38 243 rpole~;
#X obj 185 88 samplerate~;
#X obj 185 109 swap 1;
#X obj 185 132 /;
#X obj 185 64 loadbang;
#X obj 94 149 *~ 0;
#X obj 38 292 outlet~;
#X obj 38 268 rzero~ 1;
#X obj 94 171 max~ -1;
#X obj 94 193 min~ 0;
#X obj 94 109 *~ -6.28318;
#X obj 93 227 +~ 1;
#X connect 0 0 2 0;
#X connect 1 0 12 0;
#X connect 2 0 9 0;
#X connect 3 0 4 0;
#X connect 4 0 5 0;
#X connect 4 1 5 1;
#X connect 5 0 7 1;
#X connect 6 0 3 0;
#X connect 7 0 10 0;
#X connect 9 0 8 0;
#X connect 10 0 11 0;
#X connect 11 0 13 0;
#X connect 12 0 7 0;
#X connect 13 0 2 1;
