#N canvas 442 114 672 594 12;
#N canvas 0 22 450 300 (subpatch) 0;
#X array \$0-wavetable 405 float 2;
#X coords 0 1 405 -1 200 140 1;
#X restore 32 29 graph;
#X obj 296 126 soundfiler;
#X obj 296 148 v \$1-sample-length;
#X obj 296 81 list prepend;
#X obj 365 15 loadbang;
#X obj 296 -9 r \$1-load-sample;
#X obj 63 456 hip~ 5;
#X obj 63 346 -~ 0.5;
#X obj 63 396 cos~;
#X obj 63 429 *~;
#X obj 63 250 phasor~;
#X obj 63 371 *~ 0.5;
#X obj 127 321 *~;
#X obj 127 397 tabread4~ \$0-wavetable;
#X msg 296 104 read -resize \$2 \$1-wavetable;
#X obj 365 56 \$0;
#X msg 265 173 \; \$1-wavetable normalize;
#X obj 265 148 \$0;
#X obj 249 33 t b b a;
#X obj 249 214 v \$1-sample-length;
#X obj 63 198 inlet~;
#X obj 63 490 outlet~;
#X obj 127 371 +~;
#X obj 504 263 inlet vel;
#X obj 249 237 s \$1-set-wavetable-chunksize;
#X obj 212 333 envelopeIn~ \$1 wavetable-pos;
#X obj 147 286 envelopeIn~ \$1 wavetable-chunksize;
#X connect 1 0 2 0;
#X connect 3 0 14 0;
#X connect 4 0 15 0;
#X connect 5 0 18 0;
#X connect 6 0 21 0;
#X connect 7 0 11 0;
#X connect 8 0 9 0;
#X connect 9 0 6 0;
#X connect 10 0 7 0;
#X connect 10 0 12 0;
#X connect 11 0 8 0;
#X connect 12 0 22 0;
#X connect 13 0 9 1;
#X connect 14 0 1 0;
#X connect 15 0 3 1;
#X connect 17 0 16 0;
#X connect 18 0 19 0;
#X connect 18 1 17 0;
#X connect 18 2 3 0;
#X connect 19 0 24 0;
#X connect 20 0 10 0;
#X connect 22 0 13 0;
#X connect 25 0 22 1;
#X connect 26 0 12 1;
